<svg xmlns="http://www.w3.org/2000/svg" viewBox="0 0 491.26 172"><defs><style>.cls-1{fill:#2d2d2d;}.cls-2{fill:#55bfac;}.cls-3{fill:#fff4b0;}.cls-4{fill:#066654;}</style></defs><g id="Layer_2" data-name="Layer 2"><g id="Layer_1-2" data-name="Layer 1"><path class="cls-1" d="M171.32,106.42l-8,8.21v12.88H154V77.11h9.36V103l24.92-25.85h10.51L177.58,99.65l22.47,27.86h-11Z"/><path class="cls-1" d="M238.93,89.06l-18,41.55C217.4,139.32,212.5,142,206.09,142c-3.81,0-7.85-1.3-10.3-3.53l3.6-6.63A9.75,9.75,0,0,0,206,134.5c3.17,0,5-1.51,6.77-5.33l.65-1.51-16.78-38.6H206l12.1,28.45,12.17-28.45Z"/><path class="cls-1" d="M240.29,108.29c0-11.52,8.64-19.66,20.45-19.66s20.52,8.14,20.52,19.66S272.69,128,260.74,128,240.29,119.81,240.29,108.29Zm31.9,0c0-7.35-4.9-12-11.45-12s-11.38,4.68-11.38,12,4.9,12,11.38,12S272.19,115.63,272.19,108.29Z"/><path class="cls-1" d="M286.73,108.29c0-11.52,8.64-19.66,20.45-19.66s20.52,8.14,20.52,19.66S319.13,128,307.18,128,286.73,119.81,286.73,108.29Zm31.9,0c0-7.35-4.9-12-11.45-12s-11.38,4.68-11.38,12,4.9,12,11.38,12S318.63,115.63,318.63,108.29Z"/><path class="cls-1" d="M358.59,88.63V97.2A12,12,0,0,0,356.5,97c-6.84,0-11.16,4-11.16,11.89v18.64h-9V89.06h8.56v5.62C347.5,90.65,352.18,88.63,358.59,88.63Z"/><path class="cls-2" d="M419.26,127.51l-.07-33.41-16.56,27.65h-4.18L381.89,94.54v33H373V77.11h7.71l20,33.41,19.65-33.41h7.71l.07,50.4Z"/><path class="cls-2" d="M441.72,77.11h22c16.34,0,27.5,10.08,27.5,25.2s-11.16,25.2-27.5,25.2h-22Zm21.6,42.48c11.24,0,18.51-6.84,18.51-17.28S474.56,85,463.32,85H451.08v34.56Z"/><rect class="cls-3" width="124" height="172"/><path class="cls-2" d="M124,74.47V172H38.56A64.53,64.53,0,0,1,22.8,150.05,64.78,64.78,0,0,1,56.12,64.63,64.79,64.79,0,0,1,124,74.47Z"/><circle class="cls-4" cx="49.21" cy="100.79" r="6.28"/><circle class="cls-4" cx="75.45" cy="89.28" r="6.28"/><path class="cls-4" d="M56.2,123.14c-6.53,0-10.11-2-10.36-2.14a2.26,2.26,0,0,1,2.25-3.92c.17.09,8.6,4.5,23.75-2.14,15.43-6.77,17.63-15.92,17.65-16a2.26,2.26,0,1,1,4.41,1c-.1.47-2.74,11.49-20.24,19.17A43.53,43.53,0,0,1,56.2,123.14Z"/></g></g></svg>