<svg id="img-kyoor-nurse" xmlns="http://www.w3.org/2000/svg" width="290.464" height="227.999" viewBox="0 0 290.464 227.999">
  <path id="Path_1376" data-name="Path 1376" d="M4439.131,2380.189c9.652-3.7,22.435-5.718,28.7,2.537,5.663,7.435,2.231,19,7.636,26.607,6.176,8.684,19.559,6.964,29.339,2.838,19.3-8.168,35.774-21.919,54.732-30.864,24.233-11.433,64.211-13.11,67.643,22.309,1.071,11-2.317,21.879-5.791,32.367s-7.249,21.149-6.949,32.2c.342,12.208,5.619,23.943,5.533,36.194-.085,15.474-8.922,29.874-20.459,40.148-15.271,13.583-36.249,23.857-54.69,32.324-19.045,8.727-39.248,14.917-59.661,19.473-21.146,4.729-51.987,13.2-66.785-8.335-4.675-6.835-6.562-15.127-8.063-23.256s-2.745-16.465-6.349-23.9a30.771,30.771,0,0,0-17.244-15.518c-8.064-3.1-16.9-.515-25.35-2.235-17.071-3.439-26.422-23.641-24.107-40.964,3.3-24.759,20.975-41.308,37.1-58.374A175.4,175.4,0,0,1,4439.131,2380.189Z" transform="translate(-4336.915 -2374)" fill="#c9ffd5"/>
  <path id="Path_1391" data-name="Path 1391" d="M4480.165,2500.493,4476,2465.617,4551.479,2450l54.137,19.78,17.178-.52-1.562,35.4-33.835,7.808h-71.835Z" transform="translate(-4403.6 -2410.439)" fill="#85cbf8"/>
  <g id="Group_656" data-name="Group 656" transform="translate(152.717 169.317)">
    <path id="Path_1392" data-name="Path 1392" d="M4654.092,2743.9a4.6,4.6,0,0,1-.708-.054l-17.178-2.6a4.684,4.684,0,0,1-3.974-4.355l-1.929-32.654a4.685,4.685,0,1,1,9.353-.553l1.706,28.866,13.427,2.035a4.685,4.685,0,0,1-.7,9.317Z" transform="translate(-4630.294 -2699.269)" fill="#066654"/>
  </g>
  <g id="Group_657" data-name="Group 657" transform="translate(110.032 169.318)">
    <path id="Path_1393" data-name="Path 1393" d="M4552.973,2743.9a4.685,4.685,0,0,1-.7-9.317l13.427-2.035,1.706-28.866a4.685,4.685,0,1,1,9.353.553l-1.929,32.653a4.684,4.684,0,0,1-3.974,4.355l-17.178,2.6A4.615,4.615,0,0,1,4552.973,2743.9Z" transform="translate(-4548.293 -2699.271)" fill="#066654"/>
  </g>
  <g id="Group_658" data-name="Group 658" transform="translate(52.097 102.372)">
    <path id="Path_1394" data-name="Path 1394" d="M4441.68,2606.757a4.686,4.686,0,0,1-4.213-6.726c8.3-17.148,25.6-28.185,26.334-28.646a4.685,4.685,0,0,1,5,7.925h0c-.157.1-15.792,10.117-22.9,24.8A4.687,4.687,0,0,1,4441.68,2606.757Z" transform="translate(-4436.998 -2570.662)" fill="#066654"/>
  </g>
  <g id="Group_659" data-name="Group 659" transform="translate(207.744 105.496)">
    <path id="Path_1395" data-name="Path 1395" d="M4765.306,2612.758a4.686,4.686,0,0,1-4.221-2.645c-7.105-14.687-22.742-24.7-22.9-24.8a4.685,4.685,0,0,1,5-7.925c.732.461,18.037,11.5,26.334,28.646a4.687,4.687,0,0,1-4.213,6.727Z" transform="translate(-4736.005 -2576.664)" fill="#066654"/>
  </g>
  <path id="Path_1396" data-name="Path 1396" d="M4624.471,2523.151a67.153,67.153,0,1,1-123.676-36.251c.489-.776,1-1.536,1.53-2.285l.359-.5c.484-.682.989-1.359,1.5-2.019.323-.422.651-.833.984-1.244,1.108-1.374,2.28-2.7,3.493-3.977a67.138,67.138,0,0,1,97.223-.088q1.834,1.913,3.5,3.967.9,1.093,1.739,2.222l0,.005c.25.344.5.687.75,1.036.021.026.036.052.057.078.754,1.036,1.468,2.1,2.149,3.186a66.753,66.753,0,0,1,10.011,28.8A67.755,67.755,0,0,1,4624.471,2523.151Z" transform="translate(-4410.394 -2413.315)" fill="#55bfac"/>
  <circle id="Ellipse_1145" data-name="Ellipse 1145" cx="6.507" cy="6.507" r="6.507" transform="translate(123.414 71.315)" fill="#066654"/>
  <circle id="Ellipse_1146" data-name="Ellipse 1146" cx="6.507" cy="6.507" r="6.507" transform="translate(153.085 71.315)" fill="#066654"/>
  <path id="Path_1397" data-name="Path 1397" d="M4496.3,2465.808l-20.3-14.415,22.9-19.22L4549.4,2420l56.219,9.891,17.178,25.08-12.964,8.234-6.631,1.481-32.459-8.22h-40.082Z" transform="translate(-4403.6 -2396.055)" fill="#85cbf8"/>
  <path id="Path_1398" data-name="Path 1398" d="M4622.1,2508.019c-.021-.026-.037-.052-.057-.078-.25-.349-.5-.692-.75-1.036l-.005-.005-1.238-1-23.315,20.46c-3.726-.9-12.187-2.334-28.214-2.334-18.373,0-26.8,1.885-29.55,2.687l-23.582-20.694c-.515.661-1.02,1.338-1.5,2.02l-.359.5,24.37,40.782v1.465l8.165,6.309c10.577,8.173,34.517,8.152,45.036-.04l8.051-6.269v-1.744Zm-101.818,6.158,17.613,15.461v14.015Zm78.864,28.911v-14.976l16.468-14.45Z" transform="translate(-4421.589 -2437.24)" fill="#fff"/>
  <path id="Path_1399" data-name="Path 1399" d="M4565.573,2587s7.444,6.246,26.339,6.246S4622.26,2587,4622.26,2587s-9.162,7.288-30.348,7.288S4565,2587,4565,2587" transform="translate(-4446.271 -2476.124)" fill="#c4c4c4"/>
  <path id="Path_1400" data-name="Path 1400" d="M4565.573,2575s7.444,6.246,26.339,6.246S4622.26,2575,4622.26,2575s-9.162,7.288-30.348,7.288S4565,2575,4565,2575" transform="translate(-4446.271 -2470.37)" fill="#c4c4c4"/>
  <path id="Path_1401" data-name="Path 1401" d="M4565.573,2562s7.444,4.685,26.339,4.685S4622.26,2562,4622.26,2562s-9.162,5.726-30.348,5.726S4565,2562,4565,2562" transform="translate(-4446.271 -2464.138)" fill="#c4c4c4"/>
  <path id="Path_1402" data-name="Path 1402" d="M4565.573,2552s7.444,2.6,26.339,2.6,30.348-2.6,30.348-2.6-9.162,3.644-30.348,3.644S4565,2552,4565,2552" transform="translate(-4446.271 -2459.343)" fill="#c4c4c4"/>
  <g id="Group_660" data-name="Group 660" transform="translate(90.401 58.455)">
    <path id="Path_1403" data-name="Path 1403" d="M4623.877,2501.8c-.036.156-.079.318-.121.473a227.054,227.054,0,0,0-112.957,0c-.074-.286-.147-.567-.219-.854.6-.947,1.233-1.874,1.89-2.785.791-1.114,1.624-2.2,2.488-3.264,1.109-1.374,2.279-2.7,3.493-3.977a236.047,236.047,0,0,1,97.222-.089q1.835,1.913,3.5,3.967,1.3,1.592,2.493,3.263C4622.445,2499.6,4623.18,2500.7,4623.877,2501.8Z" transform="translate(-4510.581 -2486.295)" fill="#c9ffd5"/>
    <path id="Path_1404" data-name="Path 1404" d="M4623.41,2501.417a230.145,230.145,0,0,0-109.2.1q1.187-1.671,2.488-3.264a232.727,232.727,0,0,1,104.218-.1Q4622.22,2499.745,4623.41,2501.417Z" transform="translate(-4512.32 -2489.171)" fill="#066654"/>
  </g>
</svg>
