<svg xmlns="http://www.w3.org/2000/svg" width="30" height="30" viewBox="0 0 30 30"><defs><style>.a{fill:#f5f5f5;stroke:#aaa;stroke-width:3px;}.b{opacity:0;}.c{fill:#55bfac;}.d{stroke:none;}.e{fill:none;}</style></defs><g class="a"><rect class="d" width="30" height="30" rx="3"/><rect class="e" x="1.5" y="1.5" width="27" height="27" rx="1.5"/></g><g class="b" transform="translate(-1124.285 -621.259)"><path class="c" d="M1146.995,630.739l-7.912,12.183a1.8,1.8,0,0,1-1.751.805l-.021,0a1.771,1.771,0,0,1-.824-.288,1.975,1.975,0,0,1-.221-.147l-1.1-.857-1.1-.856-1.1-.856a1.8,1.8,0,1,1,2.217-2.838l1.1.856.805.63,6.877-10.59a1.8,1.8,0,0,1,3.021,1.962Z"/></g></svg>