<svg xmlns="http://www.w3.org/2000/svg" width="70" height="70" viewBox="0 0 70 70"><defs><style>.a{fill:#f4ba45;}.b{fill:#e8980a;}.c{fill:#2d2d2d;}</style></defs><path class="a" d="M213.9,443.024a8.335,8.335,0,0,0-8-8.325V432a27,27,0,0,0-27-27h0a27,27,0,0,0-27,27v2.7a8.335,8.335,0,0,0,.216,16.662A27,27,0,0,0,178.9,475h0a27,27,0,0,0,26.784-23.639A8.34,8.34,0,0,0,213.9,443.024Z" transform="translate(-143.904 -405)"/><g transform="translate(-143.904 -405)"><path class="b" d="M172.9,431a1,1,0,0,1-.316-.052l-9-3a1,1,0,1,1,.633-1.9l9,3A1,1,0,0,1,172.9,431Z"/><path class="b" d="M184.9,431a1,1,0,0,1-.316-1.948l9-3a1,1,0,1,1,.633,1.9l-9,3A1,1,0,0,1,184.9,431Z"/></g><g transform="translate(-143.904 -405)"><path class="c" d="M160.437,431.763l13.384,5.018a.25.25,0,0,1,.011.464l-11.926,5.112a.25.25,0,0,1-.262-.42l5.51-4.722a.251.251,0,0,0-.024-.4l-6.919-4.612A.25.25,0,0,1,160.437,431.763Z"/><path class="c" d="M197.371,442.237l-13.384-5.018a.25.25,0,0,1-.011-.464l11.927-5.112a.25.25,0,0,1,.261.42l-5.509,4.722a.25.25,0,0,0,.024.4L197.6,441.8A.25.25,0,0,1,197.371,442.237Z"/></g><g transform="translate(-143.904 -405)"><path class="b" d="M192.3,466a1,1,0,0,1-.374-1.928h0c.045-.018,4.515-1.879,5.393-6.268.845-4.227-1.484-5.908-1.583-5.978a1,1,0,0,1-.258-1.387,1,1,0,0,1,1.376-.271c.145.1,3.544,2.436,2.426,8.028-1.094,5.468-6.385,7.643-6.609,7.733A.993.993,0,0,1,192.3,466Z"/><path class="b" d="M165.506,466a.989.989,0,0,1-.371-.071c-.225-.09-5.515-2.265-6.609-7.733-1.119-5.592,2.281-7.931,2.426-8.028a1,1,0,0,1,1.109,1.664c-.091.064-2.419,1.745-1.574,5.972.884,4.418,5.346,6.25,5.391,6.267a1,1,0,0,1-.372,1.929Z"/></g><g transform="translate(-143.904 -405)"><path class="c" d="M148.533,420.7c-.028,0-.055,0-.083,0a1,1,0,0,1-.914-1.075c.024-.306.688-7.544,8.418-12.18a1,1,0,0,1,1.028,1.715c-6.815,4.088-7.43,10.363-7.453,10.628A1,1,0,0,1,148.533,420.7Z"/></g><g transform="translate(-143.904 -405)"><path class="c" d="M208.467,420.7a1,1,0,0,1-1-.918c-.024-.273-.643-6.542-7.453-10.627a1,1,0,0,1,1.028-1.715c7.73,4.636,8.394,11.874,8.418,12.18a1,1,0,0,1-.917,1.077C208.521,420.7,208.494,420.7,208.467,420.7Z"/></g><g transform="translate(-143.904 -405)"><path class="c" d="M178.9,460a1,1,0,0,1-.447-.105l-3.585-1.793-3.074,1.317a1,1,0,0,1-.788-1.838l3.5-1.5a1.011,1.011,0,0,1,.842.024l3.552,1.777,3.553-1.777a1,1,0,0,1,.841-.024l3.5,1.5a1,1,0,0,1-.788,1.838l-3.073-1.317-3.585,1.793A1.006,1.006,0,0,1,178.9,460Z"/></g><path class="b" d="M181.5,447h-5.372c-.48,0-.687-1.21-.307-1.793l1.91-2.925a1.313,1.313,0,0,1,2.35.06l1.74,2.89C182.179,445.831,181.967,447,181.5,447Z" transform="translate(-143.904 -405)"/></svg>