<svg xmlns="http://www.w3.org/2000/svg" width="25.4" height="25.4" viewBox="0 0 25.4 25.4"><defs><style>.a{fill:#3f51b5;}.b{fill:none;}.c{fill:#eceff1;}.d{fill:#f44336;}.e{fill:#fff;}</style></defs><path class="a" d="M20.51,4.635V4.583A12.706,12.706,0,0,0,4,16.7c0,.429.023.852.064,1.27H20.51Z" transform="translate(-4 -4)"/><path class="b" d="M30.142,4.97c-.048-.016-.093-.037-.142-.052V4.97Z" transform="translate(-13.49 -4.335)"/><path class="c" d="M30,9.905h5.829A12.765,12.765,0,0,0,33.787,8H30Z" transform="translate(-13.49 -5.46)"/><path class="c" d="M29.373,26H4.1a12.571,12.571,0,0,0,.352,1.905H29.021A12.648,12.648,0,0,0,29.373,26Z" transform="translate(-4.037 -12.03)"/><path class="c" d="M27.853,38H9.729a12.735,12.735,0,0,0,2.4,1.9H25.457A12.735,12.735,0,0,0,27.853,38Z" transform="translate(-6.091 -16.41)"/><path class="c" d="M28.948,32H5.675A12.674,12.674,0,0,0,6.71,33.905h21.2A12.731,12.731,0,0,0,28.948,32Z" transform="translate(-4.611 -14.22)"/><path class="c" d="M30,15.905h8.075a12.643,12.643,0,0,0-.9-1.905H30Z" transform="translate(-13.49 -7.65)"/><path class="c" d="M30,21.905h8.858A12.776,12.776,0,0,0,38.635,20H30Z" transform="translate(-13.49 -9.84)"/><path class="d" d="M30,6.905h3.787A12.645,12.645,0,0,0,30.142,5H30Z" transform="translate(-13.49 -4.365)"/><path class="d" d="M30,12.905h7.177A12.748,12.748,0,0,0,35.83,11H30Z" transform="translate(-13.49 -6.555)"/><path class="d" d="M30,18.905h8.635A12.577,12.577,0,0,0,38.074,17H30Z" transform="translate(-13.49 -8.745)"/><path class="d" d="M30,24.905h8.826c.041-.418.064-.841.064-1.27,0-.215-.022-.424-.032-.635H30Z" transform="translate(-13.49 -10.935)"/><path class="d" d="M29.223,29H4.656A12.527,12.527,0,0,0,5.3,30.905H28.576A12.6,12.6,0,0,0,29.223,29Z" transform="translate(-4.239 -13.125)"/><path class="d" d="M28.508,35H7.3a12.708,12.708,0,0,0,1.539,1.905H26.969A12.744,12.744,0,0,0,28.508,35Z" transform="translate(-5.206 -15.315)"/><path class="d" d="M13.5,41a12.616,12.616,0,0,0,13.332,0Z" transform="translate(-7.468 -17.505)"/><path class="e" d="M9.7,13l.3.627.657.1-.476.489.114.69L9.7,14.58l-.591.325.114-.69-.476-.489.657-.1Z" transform="translate(-5.734 -7.285)"/><path class="e" d="M13.7,13l.3.627.657.1-.476.489.114.69L13.7,14.58l-.591.325.114-.69-.476-.489.657-.1Z" transform="translate(-7.194 -7.285)"/><path class="e" d="M6.087,14.937l.591.325-.114-.69.476-.489-.657-.1,0-.006q-.314.541-.576,1.114Z" transform="translate(-4.658 -7.642)"/><path class="e" d="M17.7,13l.3.627.657.1-.476.489.114.69L17.7,14.58l-.591.325.114-.69-.476-.489.657-.1Z" transform="translate(-8.654 -7.285)"/><path class="e" d="M21.7,13l.3.627.657.1-.476.489.114.69L21.7,14.58l-.591.325.114-.69-.476-.489.657-.1Z" transform="translate(-10.114 -7.285)"/><path class="e" d="M25.453,13l.3.627.657.1-.476.489.114.69-.591-.325-.591.325.114-.69-.476-.489.657-.1Z" transform="translate(-11.482 -7.285)"/><path class="e" d="M9.7,21l.3.627.657.1-.476.489.114.69L9.7,22.58l-.591.325.114-.69-.476-.489.657-.1Z" transform="translate(-5.734 -10.205)"/><path class="e" d="M13.7,21l.3.627.657.1-.476.489.114.69L13.7,22.58l-.591.325.114-.69-.476-.489.657-.1Z" transform="translate(-7.194 -10.205)"/><path class="e" d="M17.7,21l.3.627.657.1-.476.489.114.69L17.7,22.58l-.591.325.114-.69-.476-.489.657-.1Z" transform="translate(-8.654 -10.205)"/><path class="e" d="M5.7,21l.3.627.657.1-.476.489.114.69L5.7,22.58l-.591.325.114-.69-.476-.489.657-.1Z" transform="translate(-4.274 -10.205)"/><path class="e" d="M21.7,21l.3.627.657.1-.476.489.114.69L21.7,22.58l-.591.325.114-.69-.476-.489.657-.1Z" transform="translate(-10.114 -10.205)"/><path class="e" d="M25.453,21l.3.627.657.1-.476.489.114.69-.591-.325-.591.325.114-.69-.476-.489.657-.1Z" transform="translate(-11.482 -10.205)"/><path class="e" d="M10.7,17l.3.627.657.1-.476.489.114.69L10.7,18.58l-.591.325.114-.69-.476-.489.657-.1Z" transform="translate(-6.099 -8.745)"/><path class="e" d="M14.7,17l.3.627.657.1-.476.489.114.69L14.7,18.58l-.591.325.114-.69-.476-.489.657-.1Z" transform="translate(-7.559 -8.745)"/><path class="e" d="M6.7,17l.3.627.657.1-.476.489.114.69L6.7,18.58l-.591.325.114-.69-.476-.489.657-.1Z" transform="translate(-4.639 -8.745)"/><path class="e" d="M18.7,17l.3.627.657.1-.476.489.114.69L18.7,18.58l-.591.325.114-.69-.476-.489.657-.1Z" transform="translate(-9.019 -8.745)"/><path class="e" d="M22.7,17l.3.627.657.1-.476.489.114.69L22.7,18.58l-.591.325.114-.69-.476-.489.657-.1Z" transform="translate(-10.479 -8.745)"/><path class="e" d="M26.453,17l.3.627.657.1-.476.489.114.69-.591-.325-.591.325.114-.69-.476-.489.657-.1Z" transform="translate(-11.847 -8.745)"/><path class="e" d="M10.7,9l.3.627.657.1-.476.489.114.69L10.7,10.58l-.591.325.114-.69L9.75,9.726l.657-.1Z" transform="translate(-6.099 -5.825)"/><path class="e" d="M14.7,9l.3.627.657.1-.476.489.114.69L14.7,10.58l-.591.325.114-.69-.476-.489.657-.1Z" transform="translate(-7.559 -5.825)"/><path class="e" d="M18.7,9l.3.627.657.1-.476.489.114.69L18.7,10.58l-.591.325.114-.69-.476-.489.657-.1Z" transform="translate(-9.019 -5.825)"/><path class="e" d="M22.7,9l.3.627.657.1-.476.489.114.69L22.7,10.58l-.591.325.114-.69-.476-.489.657-.1Z" transform="translate(-10.479 -5.825)"/><path class="e" d="M26.453,9l.3.627.657.1-.476.489.114.69-.591-.325-.591.325.114-.69L25.5,9.726l.657-.1Z" transform="translate(-11.847 -5.825)"/><path class="e" d="M14.5,7.292l-.114-.69.476-.489-.35-.053q-.561.275-1.089.6l-.1.628.591-.325Z" transform="translate(-7.402 -4.752)"/><path class="e" d="M17.7,5l.3.627.657.1-.476.489.114.69L17.7,6.58l-.591.325.114-.69-.476-.489.657-.1Z" transform="translate(-8.654 -4.365)"/><path class="e" d="M21.7,5l.3.627.657.1-.476.489.114.69L21.7,6.58l-.591.325.114-.69-.476-.489.657-.1Z" transform="translate(-10.114 -4.365)"/><path class="e" d="M25.453,5l.3.627.657.1-.476.489.114.689-.591-.325-.591.325.114-.69L24.5,5.726l.657-.1Z" transform="translate(-11.482 -4.365)"/></svg>