<svg xmlns="http://www.w3.org/2000/svg" width="70" height="70" viewBox="0 0 70 70"><defs><style>.a{fill:#f4ba45;}.b{fill:#e8980a;}.c{fill:#2d2d2d;}.d{fill:#d39933;}.e{fill:none;stroke:#2d2d2d;stroke-linecap:round;stroke-linejoin:round;stroke-width:2.08px;}</style></defs><path class="a" d="M788.74,436.6l-.01-.01a8.142,8.142,0,0,0-4.02-5.75l-6.56-3.71a7.921,7.921,0,0,0-1.43-.64,16.038,16.038,0,0,0,5.2-9.99,4.949,4.949,0,0,0,.12-9.79v-1.67a15.935,15.935,0,0,0-1.18-6.04H751.14a15.935,15.935,0,0,0-1.18,6.04v1.67a4.949,4.949,0,0,0,.12,9.79,16.038,16.038,0,0,0,5.2,9.99,7.921,7.921,0,0,0-1.43.64l-6.56,3.71a8.142,8.142,0,0,0-4.02,5.75l-.01.01L731,450.91v14.73l12.15-13.96,5.3-6.31a1.2,1.2,0,0,1,1.68-.15,1.161,1.161,0,0,1,.4.93l.02-.02v8.02h.03v14.33h30.84V454.15h.03v-8.02l.02.02a1.161,1.161,0,0,1,.4-.93,1.191,1.191,0,0,1,1.68.15l5.3,6.31L801,465.64V450.91Zm-19.36-33.31,5.35-1.78a.6.6,0,0,1,.75.37.609.609,0,0,1-.38.76l-5.35,1.78a.567.567,0,0,1-.18.03.595.595,0,0,1-.19-1.16Zm-12.86-1.41a.6.6,0,0,1,.76-.37l5.34,1.78a.595.595,0,0,1-.19,1.16.567.567,0,0,1-.18-.03l-5.35-1.78A.609.609,0,0,1,756.52,401.88Zm6.47,6.28-7.09,3.04a.151.151,0,0,1-.16-.25l3.28-2.81a.141.141,0,0,0-.02-.23l-4.11-2.74a.154.154,0,0,1,.14-.27l7.95,2.98A.152.152,0,0,1,762.99,408.16Zm4.55,5.8h-3.19c-.29,0-.41-.72-.18-1.07l1.13-1.74a.784.784,0,0,1,1.4.04l1.03,1.72C767.95,413.26,767.82,413.96,767.54,413.96Zm1.47-6.09,7.09-3.04a.151.151,0,0,1,.16.25l-3.28,2.81a.141.141,0,0,0,.02.23l4.11,2.74a.154.154,0,0,1-.14.27l-7.95-2.99A.144.144,0,0,1,769.01,407.87Z" transform="translate(-731 -399)"/><g transform="translate(-731 -399)"><path class="a" d="M756.52,401.88a.6.6,0,0,1,.76-.37l5.34,1.78a.595.595,0,0,1-.19,1.16.567.567,0,0,1-.18-.03l-5.35-1.78A.609.609,0,0,1,756.52,401.88Z"/><path class="a" d="M762.98,407.88a.152.152,0,0,1,.01.28l-7.09,3.04a.151.151,0,0,1-.16-.25l3.28-2.81a.141.141,0,0,0-.02-.23l-4.11-2.74a.154.154,0,0,1,.14-.27Z"/><path class="a" d="M767.73,412.91c.22.35.09,1.05-.19,1.05h-3.19c-.29,0-.41-.72-.18-1.07l1.13-1.74a.784.784,0,0,1,1.4.04Z"/><path class="a" d="M769,404.04a.6.6,0,0,1,.38-.75l5.35-1.78a.6.6,0,0,1,.75.37.609.609,0,0,1-.38.76l-5.35,1.78a.567.567,0,0,1-.18.03A.6.6,0,0,1,769,404.04Z"/><path class="a" d="M776.97,411.13l-7.95-2.99a.144.144,0,0,1-.01-.27l7.09-3.04a.151.151,0,0,1,.16.25l-3.28,2.81a.141.141,0,0,0,.02.23l4.11,2.74A.154.154,0,0,1,776.97,411.13Z"/><path class="b" d="M763,404.04a.6.6,0,0,1-.57.41.567.567,0,0,1-.18-.03l-5.35-1.78a.6.6,0,1,1,.38-1.13l5.34,1.78A.6.6,0,0,1,763,404.04Z"/><path class="b" d="M775.1,402.64l-5.35,1.78a.567.567,0,0,1-.18.03.595.595,0,0,1-.19-1.16l5.35-1.78a.6.6,0,0,1,.75.37A.609.609,0,0,1,775.1,402.64Z"/><path class="c" d="M762.99,408.16l-7.09,3.04a.151.151,0,0,1-.16-.25l3.28-2.81a.141.141,0,0,0-.02-.23l-4.11-2.74a.154.154,0,0,1,.14-.27l7.95,2.98A.152.152,0,0,1,762.99,408.16Z"/><path class="c" d="M776.97,411.13l-7.95-2.99a.144.144,0,0,1-.01-.27l7.09-3.04a.151.151,0,0,1,.16.25l-3.28,2.81a.141.141,0,0,0,.02.23l4.11,2.74A.154.154,0,0,1,776.97,411.13Z"/><path class="b" d="M767.54,413.96h-3.19c-.29,0-.41-.72-.18-1.07l1.13-1.74a.784.784,0,0,1,1.4.04l1.03,1.72C767.95,413.26,767.82,413.96,767.54,413.96Z"/></g><path class="c" d="M765.94,417.678c5.054,0,6.067,2.124,5.054,3.229-1.034,1.127-2.387-.983-4.984-.983s-3.9,2.11-4.984.983C760.01,419.845,760.886,417.678,765.94,417.678Z" transform="translate(-731 -399)"/><path class="d" d="M773.927,428.178A6.964,6.964,0,0,1,767.3,433h-2.6a6.964,6.964,0,0,1-6.628-4.821,16.2,16.2,0,0,0,15.854,0Z" transform="translate(-731 -399)"/><rect class="b" width="31.196" height="1.517" transform="translate(19.402 68.483)"/><path class="e" d="M786.56,456.3l-.8,1.873,1.07,2.141-1.07,2.141.8,1.873" transform="translate(-731 -399)"/><path class="e" d="M745.44,456.3l.8,1.873-1.07,2.141,1.07,2.141-.8,1.873" transform="translate(-731 -399)"/><path class="e" d="M741.044,427.128l-.757,1.892-2.27.757-.757,2.27-1.892.757" transform="translate(-731 -399)"/><path class="e" d="M790.956,429.207l.757,1.892,2.27.757.757,2.27,1.892.757" transform="translate(-731 -399)"/></svg>