<svg xmlns="http://www.w3.org/2000/svg" xmlns:xlink="http://www.w3.org/1999/xlink" width="70" height="70" viewBox="0 0 70 70"><defs><style>.a{fill:#f4ba45;}.b{fill:#2d2d2d;}.c{fill:#c6c6c6;}.d{fill:#f03a17;}.e{fill:#61d0f2;}.f{fill:url(#a);}.g{fill:#e8980a;}</style><linearGradient id="a" x1="0.5" y1="1.022" x2="0.5" y2="0.022" gradientUnits="objectBoundingBox"><stop offset="0" stop-color="#fff" stop-opacity="0"/><stop offset="1" stop-color="#f55"/></linearGradient></defs><path class="a" d="M123.9,443.024a8.337,8.337,0,0,0-8-8.326V432a27,27,0,0,0-20.25-26.15c-.84-.22-1.69-.39-2.56-.53a.248.248,0,0,0-.08-.01c-.44-.07-.89-.12-1.35-.17-.9-.09-1.82-.14-2.75-.14-.52,0-1.04.01-1.55.05-.37.01-.73.04-1.09.08-.13.01-.25.02-.37.04-.34.03-.68.08-1.01.13a2.517,2.517,0,0,0-.27.04c-.39.06-.78.13-1.16.21-.44.09-.88.19-1.31.3s-.86.23-1.28.36c-.3.09-.59.19-.88.29A27.038,27.038,0,0,0,61.9,432v2.7a8.335,8.335,0,0,0,.216,16.662,26.993,26.993,0,0,0,53.568,0A8.338,8.338,0,0,0,123.9,443.024Z" transform="translate(-53.904 -405)"/><g transform="translate(-53.904 -405)"><path class="b" d="M98.037,459.47a1.236,1.236,0,0,1-1.142-.763c-.074-.169-1.567-3.344-7.991-3.344-6.458,0-7.933,3.209-7.993,3.346a1.245,1.245,0,0,1-1.613.656,1.228,1.228,0,0,1-.677-1.59c.08-.2,2.041-4.885,10.283-4.885s10.2,4.686,10.282,4.885a1.237,1.237,0,0,1-1.149,1.7Z"/></g><g transform="translate(-53.904 -405)"><path class="c" d="M95.152,456.286A1.649,1.649,0,0,1,93.8,453.7l7.181-10.432a1.648,1.648,0,0,1,2.716,1.869l-7.181,10.432A1.65,1.65,0,0,1,95.152,456.286Z"/></g><g transform="translate(-53.904 -405)"><path class="d" d="M95.153,455.462a.825.825,0,0,1-.678-1.292l7.182-10.432a.824.824,0,0,1,1.357.935l-7.182,10.432A.822.822,0,0,1,95.153,455.462Z"/></g><g transform="translate(-53.904 -405)"><path class="b" d="M78.483,438.418c-4.29,0-5.525-3.821-5.578-5.842a1.235,1.235,0,0,1,1.2-1.268,1.217,1.217,0,0,1,1.269,1.2c.013.347.209,3.435,3.106,3.435s3.094-3.088,3.107-3.44a1.256,1.256,0,0,1,1.274-1.194,1.233,1.233,0,0,1,1.2,1.265C84.008,434.6,82.773,438.418,78.483,438.418Z"/></g><g transform="translate(-53.904 -405)"><path class="b" d="M98.817,438.418c-4.29,0-5.525-3.821-5.578-5.842a1.235,1.235,0,0,1,1.2-1.268h.034a1.236,1.236,0,0,1,1.235,1.2c.013.347.209,3.435,3.106,3.435s3.094-3.088,3.107-3.44a1.25,1.25,0,0,1,1.274-1.194,1.232,1.232,0,0,1,1.2,1.265C104.342,434.6,103.107,438.418,98.817,438.418Z"/></g><path class="e" d="M110.693,426.482s-5.306,12.736,0,12.736S110.693,426.482,110.693,426.482Z" transform="translate(-53.904 -405)"/><path class="f" d="M115.41,426.89H62.39a27.053,27.053,0,0,1,17.6-20.39c.29-.1.58-.2.88-.29.42-.13.85-.25,1.28-.36s.87-.21,1.31-.3c.38-.08.77-.15,1.16-.21a2.517,2.517,0,0,1,.27-.04c.33-.05.67-.1,1.01-.13.12-.02.24-.03.37-.04.36-.04.72-.07,1.09-.08.51-.04,1.03-.05,1.55-.05.93,0,1.85.05,2.75.14.46.05.91.1,1.35.17a.248.248,0,0,1,.08.01,21.923,21.923,0,0,1,2.56.53,26.994,26.994,0,0,1,19.76,21.04Z" transform="translate(-53.904 -405)"/><g transform="translate(-53.904 -405)"><path class="g" d="M104.343,428.324a.991.991,0,0,1-.418-.093,17.044,17.044,0,0,0-5.223-1.238,15.461,15.461,0,0,0-5.186.426,1,1,0,0,1-.592-1.911A17.134,17.134,0,0,1,98.857,425a18.683,18.683,0,0,1,5.909,1.418,1,1,0,0,1-.423,1.907Z"/></g><g transform="translate(-53.904 -405)"><path class="g" d="M73.223,428.324a1,1,0,0,1-.423-1.907A18.673,18.673,0,0,1,78.709,425a17.221,17.221,0,0,1,5.933.509,1,1,0,0,1-.592,1.91,15.577,15.577,0,0,0-5.186-.425,17.034,17.034,0,0,0-5.223,1.238A.991.991,0,0,1,73.223,428.324Z"/></g><path class="g" d="M91.5,447H86.125c-.48,0-.687-1.21-.307-1.793l1.91-2.925a1.313,1.313,0,0,1,2.35.06l1.74,2.89C92.179,445.831,91.967,447,91.5,447Z" transform="translate(-53.904 -405)"/></svg>