<svg xmlns="http://www.w3.org/2000/svg" xmlns:xlink="http://www.w3.org/1999/xlink" width="70" height="70" viewBox="0 0 70 70"><defs><style>.a{fill:#f4ba45;}.b{fill:#d39933;}.c{fill:#2d2d2d;}.d{fill:#e8980a;}.e{fill:url(#a);}</style><radialGradient id="a" cx="0.5" cy="0.5" r="0.624" gradientUnits="objectBoundingBox"><stop offset="0" stop-color="#f55"/><stop offset="0.183" stop-color="#fb744f"/><stop offset="0.398" stop-color="#f8924b"/><stop offset="0.609" stop-color="#f5a847"/><stop offset="0.812" stop-color="#f4b545"/><stop offset="1" stop-color="#f4ba45"/></radialGradient></defs><path class="a" d="M565.49,434.77l-11.04-6.25a13.721,13.721,0,0,0-3.107-1.285,26.8,26.8,0,0,0,9.287-17.175,7.735,7.735,0,0,0,6.02-6.06H501.36a7.723,7.723,0,0,0,6.01,6.06,26.8,26.8,0,0,0,9.29,17.174,13.7,13.7,0,0,0-3.11,1.286l-11.04,6.25a13.9,13.9,0,0,0-3.51,2.84v24.61l5.47-6.51a1.991,1.991,0,0,1,3.52,1.3L508,457v17h52V457l.01.01a1.991,1.991,0,0,1,3.52-1.3l5.47,6.51V437.61A13.9,13.9,0,0,0,565.49,434.77Z" transform="translate(-499 -404)"/><path class="b" d="M547.12,430.17a11.525,11.525,0,0,1-10.97,7.98h-4.3a11.525,11.525,0,0,1-10.97-7.98,26.808,26.808,0,0,0,26.24,0Z" transform="translate(-499 -404)"/><g transform="translate(-499 -404)"><path class="c" d="M561.833,428.866a1,1,0,0,1-.919-.606l-1.315-3.068,1.493-2.986-1.493-2.987,1.315-3.068a1,1,0,0,1,1.838.787l-.949,2.216,1.525,3.052-1.525,3.051.949,2.216a1,1,0,0,1-.525,1.312A.979.979,0,0,1,561.833,428.866Z"/></g><g transform="translate(-499 -404)"><path class="c" d="M551.966,434a1,1,0,0,1-.919-.606l-2.383-5.56L551.581,422l-2.917-5.834,2.383-5.56a1,1,0,0,1,1.838.788l-2.017,4.708,2.949,5.9-2.949,5.9,2.017,4.708a1,1,0,0,1-.525,1.313A.982.982,0,0,1,551.966,434Z"/></g><g transform="translate(-499 -404)"><path class="c" d="M506.167,428.866a.979.979,0,0,1-.394-.081,1,1,0,0,1-.525-1.312l.949-2.216-1.525-3.051,1.525-3.052-.949-2.216a1,1,0,0,1,1.838-.787l1.315,3.068-1.493,2.987,1.493,2.986-1.315,3.068A1,1,0,0,1,506.167,428.866Z"/></g><g transform="translate(-499 -404)"><path class="c" d="M516.034,434a.982.982,0,0,1-.394-.081,1,1,0,0,1-.525-1.313l2.017-4.708-2.949-5.9,2.949-5.9-2.017-4.708a1,1,0,0,1,1.838-.788l2.383,5.56L516.419,422l2.917,5.834-2.383,5.56A1,1,0,0,1,516.034,434Z"/></g><path class="d" d="M538.37,410.7h-8.74c-.78,0-1.12-1.97-.5-2.92L531.6,404h4.99l2.3,3.82C539.48,408.8,539.13,410.7,538.37,410.7Z" transform="translate(-499 -404)"/><circle class="e" cx="16.5" cy="16.5" r="16.5" transform="translate(28 36)"/><path class="c" d="M533.9,419.789c8.366,0,10.043,3.516,8.366,5.345-1.712,1.866-3.951-1.627-8.249-1.627s-6.463,3.493-8.249,1.627C524.085,423.376,525.535,419.789,533.9,419.789Z" transform="translate(-499 -404)"/></svg>