<svg xmlns="http://www.w3.org/2000/svg" width="70" height="70" viewBox="0 0 70 70"><defs><style>.a{fill:#fff;}.b{fill:#55bfac;}.c{fill:#59ef59;}</style></defs><g transform="translate(-561 -596)"><circle class="a" cx="33.5" cy="33.5" r="33.5" transform="translate(562.5 597.5)"/><path class="b" d="M596,599a32,32,0,1,1-32,32,32.036,32.036,0,0,1,32-32m0-3a35,35,0,1,0,35,35,35,35,0,0,0-35-35Z"/></g><path class="c" d="M609.459,617.041a3.5,3.5,0,0,0-4.859.941l-12.869,19.053-5.116-3.882a3.5,3.5,0,1,0-4.23,5.576l8.061,6.118c.03.022.062.036.091.058s.042.038.065.054c.063.042.129.072.192.109s.14.085.212.121c.094.046.19.084.286.121.073.029.144.061.218.084a3.268,3.268,0,0,0,.333.081c.063.013.124.032.187.042a3.374,3.374,0,0,0,1.338-.056c.087-.02.167-.061.252-.088a3.532,3.532,0,0,0,.514-.193c.1-.05.187-.121.282-.18a3.46,3.46,0,0,0,.4-.278,161.913,161.913,0,0,1,.529-.548c.022-.03.035-.063.056-.093s.04-.04.056-.063L610.4,621.9A3.5,3.5,0,0,0,609.459,617.041Z" transform="translate(-561 -596)"/></svg>