<svg xmlns="http://www.w3.org/2000/svg" xmlns:xlink="http://www.w3.org/1999/xlink" width="70" height="70" viewBox="0 0 70 70"><defs><style>.a,.g{fill:#b9e1ea;}.a{opacity:0;}.b{fill:#d39933;}.c{fill:#f4ba45;}.d{fill:url(#a);}.e{fill:#e8980a;}.f{fill:#2d2d2d;}</style><linearGradient id="a" x1="0.322" y1="0.711" x2="0.673" y2="-0.137" gradientUnits="objectBoundingBox"><stop offset="0" stop-color="#fff" stop-opacity="0"/><stop offset="1" stop-color="#3fe900"/></linearGradient></defs><rect class="a" width="28" height="16" transform="translate(42 6)"/><path class="b" d="M637.71,472H616.9V448.54L631,456s-2,6-1,9S637.71,472,637.71,472Z" transform="translate(-616.9 -402)"/><path class="c" d="M667.84,416.41a26.85,26.85,0,0,1-3.05,12.43l-7.13,13.7-1.18,2.27a27.311,27.311,0,0,1-3.96,5.7,8.63,8.63,0,0,0-4.89-4.41A16.887,16.887,0,0,0,643,445a1.274,1.274,0,0,0-.2.01.59.59,0,0,0-.14.02c-.05.01-.1.02-.14.03a.664.664,0,0,0-.2.06,1.653,1.653,0,0,0-.46.23,2.106,2.106,0,0,0-.291.251,1.8,1.8,0,0,0-.229.289,1.987,1.987,0,0,0,.55,2.77l.27.18,7.08,4.72a26.988,26.988,0,0,1-29.17,2.75,27.872,27.872,0,0,1-3.17-1.93V403.89q.51-.975,1.08-1.89h45.7A27.067,27.067,0,0,1,667.84,416.41Z" transform="translate(-616.9 -402)"/><path class="d" d="M667.84,416.41a26.85,26.85,0,0,1-3.05,12.43l-7.13,13.7-40.76-21.2V403.89q.51-.975,1.08-1.89h45.7A27.067,27.067,0,0,1,667.84,416.41Z" transform="translate(-616.9 -402)"/><g transform="translate(-616.9 -402)"><path class="e" d="M655.89,427.112a1,1,0,0,1-.858-.485l-4.886-8.132a1,1,0,1,1,1.713-1.029l4.887,8.132a1,1,0,0,1-.856,1.514Z"/></g><path class="f" d="M645.347,420.136l7.437,12.207a.25.25,0,0,1-.278.372l-12.539-3.336a.25.25,0,0,1,.053-.491l7.249-.318a.249.249,0,0,0,.226-.327l-2.6-7.9A.25.25,0,0,1,645.347,420.136Z" transform="translate(-616.9 -402)"/><path class="e" d="M660.532,438.423l.87,8a1.827,1.827,0,0,1-2.659,1.819l-3.319-1.726a.847.847,0,0,1-.36-1.141l3.781-7.269A.9.9,0,0,1,660.532,438.423Z" transform="translate(-616.9 -402)"/><g transform="translate(-616.9 -402)"><path class="e" d="M623.2,429.629a.984.984,0,0,1-.33-.057,8.011,8.011,0,0,1-4.253-3.989c-1.042-2.261-.96-4.987.245-8.1,1.871-4.839,5.339-6.147,7.919-6.392a12.159,12.159,0,0,1,5.086.64,1,1,0,0,1-.72,1.865c-.331-.123-7.565-2.77-10.419,4.608-1,2.58-1.1,4.774-.306,6.52a6.07,6.07,0,0,0,3.115,2.968,1,1,0,0,1-.337,1.941Z"/></g><g transform="translate(-616.9 -402)"><path class="f" d="M656,471.007a1,1,0,0,1-.995-.914c-.314-3.639-1.323-4.325-2.72-5.276-1.464-1-3.286-2.236-4.4-6.648a1,1,0,1,1,1.94-.488c.924,3.674,2.215,4.552,3.581,5.482,1.569,1.068,3.192,2.172,3.587,6.758a1,1,0,0,1-.91,1.082A.838.838,0,0,1,656,471.007Z"/></g><g transform="translate(-616.9 -402)"><path class="f" d="M660.108,468.163a1,1,0,0,1-.995-.914c-.314-3.64-1.323-4.326-2.72-5.276-1.464-1-3.286-2.237-4.4-6.649a1,1,0,1,1,1.94-.488c.924,3.675,2.214,4.553,3.581,5.482,1.569,1.069,3.192,2.172,3.587,6.759a1,1,0,0,1-.91,1.082A.847.847,0,0,1,660.108,468.163Z"/></g><g transform="translate(-616.9 -402)"><path class="f" d="M664.22,465.318a1,1,0,0,1-.995-.914c-.314-3.638-1.323-4.326-2.72-5.276-1.464-1-3.286-2.236-4.4-6.649a1,1,0,0,1,1.94-.488c.924,3.675,2.215,4.554,3.581,5.484,1.569,1.067,3.192,2.171,3.587,6.757a1,1,0,0,1-.91,1.082A.847.847,0,0,1,664.22,465.318Z"/></g><g transform="translate(-616.9 -402)"><path class="g" d="M641.86,445.35a2.106,2.106,0,0,0-.291.251A1.97,1.97,0,0,1,641.86,445.35Z"/><path class="g" d="M641.89,448.66l.27.18a1.986,1.986,0,0,1-1.19-1.84,1.963,1.963,0,0,1,.6-1.4,1.8,1.8,0,0,0-.229.289A1.987,1.987,0,0,0,641.89,448.66Z"/></g></svg>