<svg xmlns="http://www.w3.org/2000/svg" width="70" height="70" viewBox="0 0 70 70"><defs><style>.a{fill:#fff;}.b{fill:#55bfac;}.c{fill:#e84949;}</style></defs><g transform="translate(-651 -596)"><circle class="a" cx="33.5" cy="33.5" r="33.5" transform="translate(652.5 597.5)"/><path class="b" d="M686,599a32,32,0,1,1-32,32,32.036,32.036,0,0,1,32-32m0-3a35,35,0,1,0,35,35,35,35,0,0,0-35-35Z"/></g><path class="c" d="M690.949,631l5.481-5.48a3.5,3.5,0,0,0-4.95-4.95L686,626.051l-5.48-5.481a3.5,3.5,0,0,0-4.95,4.95l5.481,5.48-5.481,5.48a3.5,3.5,0,0,0,4.95,4.95l5.48-5.481,5.48,5.481a3.5,3.5,0,0,0,4.95-4.95Z" transform="translate(-651 -596)"/></svg>