<svg xmlns="http://www.w3.org/2000/svg" width="70" height="70" viewBox="0 0 70 70"><defs><style>.a{fill:#f4ba45;}.b{fill:#2d2d2d;}.c{fill:#e8980a;}.d{fill:#f55;}.e,.f{fill:none;stroke-linecap:round;stroke-miterlimit:10;}.e{stroke:#e8980a;stroke-width:2px;}.f{stroke:#2d2d2d;stroke-width:3px;}.g{fill:#fff;}</style></defs><path class="a" d="M898.4,433.524a8.337,8.337,0,0,0-8-8.326v-2.7a27,27,0,0,0-20.25-26.15c-.84-.22-1.69-.39-2.56-.53a.248.248,0,0,0-.08-.01c-.44-.07-.89-.12-1.35-.17-.9-.09-1.82-.14-2.75-.14-.52,0-1.04.01-1.55.05-.37.01-.73.04-1.09.08-.13.01-.25.02-.37.04-.34.03-.68.08-1.01.13a2.518,2.518,0,0,0-.27.04c-.39.06-.78.13-1.16.21-.44.09-.88.19-1.31.3s-.86.23-1.28.36c-.3.09-.59.19-.88.29a27.038,27.038,0,0,0-18.09,25.5v2.7a8.335,8.335,0,0,0,.216,16.662,26.993,26.993,0,0,0,53.568,0A8.338,8.338,0,0,0,898.4,433.524Z" transform="translate(-828.404 -395.5)"/><g transform="translate(-828.404 -395.5)"><path class="b" d="M852.983,428.918c-4.29,0-5.525-3.821-5.578-5.842a1.235,1.235,0,0,1,1.2-1.268,1.217,1.217,0,0,1,1.269,1.2c.013.347.209,3.435,3.106,3.435s3.094-3.088,3.107-3.44a1.256,1.256,0,0,1,1.274-1.194,1.232,1.232,0,0,1,1.2,1.265C858.508,425.1,857.273,428.918,852.983,428.918Z"/></g><g transform="translate(-828.404 -395.5)"><path class="b" d="M873.317,428.918c-4.29,0-5.525-3.821-5.578-5.842a1.235,1.235,0,0,1,1.2-1.268h.034a1.236,1.236,0,0,1,1.235,1.2c.013.347.209,3.435,3.106,3.435s3.094-3.088,3.107-3.44a1.25,1.25,0,0,1,1.274-1.194,1.232,1.232,0,0,1,1.2,1.265C878.842,425.1,877.607,428.918,873.317,428.918Z"/></g><path class="c" d="M866,437.5h-5.372c-.48,0-.687-1.21-.307-1.793l1.91-2.925a1.313,1.313,0,0,1,2.35.06l1.74,2.89C866.679,436.331,866.467,437.5,866,437.5Z" transform="translate(-828.404 -395.5)"/><path class="b" d="M863.346,443.789c8.366,0,10.043,3.516,8.366,5.345-1.712,1.866-3.951-1.627-8.249-1.627S857,451,855.213,449.134C853.531,447.376,854.981,443.789,863.346,443.789Z" transform="translate(-828.404 -395.5)"/><path class="d" d="M870.4,454s.218,7-7.093,7-6.907-7-6.907-7v-7s1.6-1,6.6-1a21.131,21.131,0,0,1,7.4,1Z" transform="translate(-828.404 -395.5)"/><path class="e" d="M868.283,415.633c3,3,10,3,10,3" transform="translate(-828.404 -395.5)"/><path class="e" d="M858.283,415.633c-3,3-10,3-10,3" transform="translate(-828.404 -395.5)"/><g transform="translate(-828.404 -395.5)"><path class="f" d="M888.558,441.644c0-2.089-1.79-3.506-4.662-3.506a7.033,7.033,0,0,0-6.079,2.872l-3.617-2.35c2.088-2.834,5.445-4.55,10.107-4.55,5.481,0,9.136,2.5,9.136,6.787,0,6.08-6.378,6.638-6.378,11.039H882.33C882.33,446.417,888.558,445.373,888.558,441.644Zm-6.825,16.3a2.965,2.965,0,1,1,2.984,2.909A2.884,2.884,0,0,1,881.733,457.94Z"/></g><g transform="translate(-828.404 -395.5)"><path class="g" d="M888.558,441.644c0-2.089-1.79-3.506-4.662-3.506a7.033,7.033,0,0,0-6.079,2.872l-3.617-2.35c2.088-2.834,5.445-4.55,10.107-4.55,5.481,0,9.136,2.5,9.136,6.787,0,6.08-6.378,6.638-6.378,11.039H882.33C882.33,446.417,888.558,445.373,888.558,441.644Zm-6.825,16.3a2.965,2.965,0,1,1,2.984,2.909A2.884,2.884,0,0,1,881.733,457.94Z"/></g></svg>