<svg xmlns="http://www.w3.org/2000/svg" width="70" height="70" viewBox="0 0 70 70"><defs><style>.a{fill:#f4ba45;}.b{fill:#e8980a;}.c{fill:#2d2d2d;}.d{fill:#fff;}</style></defs><g transform="translate(0)"><path class="a" d="M312.4,178.52a8.335,8.335,0,0,1-3.09,6.48H245.48a8.336,8.336,0,0,1,4.92-14.8v-2.7A27.038,27.038,0,0,1,268.49,142c.29-.1.58-.2.88-.29.42-.13.85-.25,1.28-.36s.87-.21,1.31-.3c.38-.08.77-.15,1.16-.21a2.513,2.513,0,0,1,.27-.04c.33-.05.67-.1,1.01-.13.12-.02.24-.03.37-.04.36-.04.72-.07,1.09-.08.51-.04,1.03-.05,1.55-.05.93,0,1.85.05,2.75.14.46.05.91.1,1.35.17a.248.248,0,0,1,.08.01c.87.14,1.72.31,2.56.53A27.026,27.026,0,0,1,304.4,167.5v2.7A8.33,8.33,0,0,1,312.4,178.52Z" transform="translate(-242.4 -115)"/><path class="b" d="M280,182.5h-5.372c-.48,0-.687-1.21-.307-1.793l1.91-2.925a1.313,1.313,0,0,1,2.35.06l1.74,2.89C280.679,181.331,280.467,182.5,280,182.5Z" transform="translate(-242.4 -115)"/><circle class="c" cx="4" cy="4" r="4" transform="translate(20.583 49.918)"/><circle class="c" cx="4" cy="4" r="4" transform="translate(40.917 50)"/><g transform="translate(-242.4 -115)"><path class="b" d="M291.955,163.767a1,1,0,0,1-.374-.21,16.987,16.987,0,0,0-4.644-2.69,15.484,15.484,0,0,0-5.09-1.087,1,1,0,0,1-.016-2A17.172,17.172,0,0,1,287.659,159a18.684,18.684,0,0,1,5.25,3.06,1,1,0,0,1-.954,1.705Z"/></g><g transform="translate(-242.4 -115)"><path class="b" d="M261.558,164.237a1,1,0,0,1-.423-1.908,18.674,18.674,0,0,1,5.909-1.418,17.232,17.232,0,0,1,5.933.509,1,1,0,0,1-.592,1.91,15.54,15.54,0,0,0-5.187-.424,16.9,16.9,0,0,0-5.222,1.239A1.025,1.025,0,0,1,261.558,164.237Z"/></g><g transform="translate(-242.4 -115)"><path class="c" d="M278.625,144.738a4.4,4.4,0,0,1-4.484-4.408,4.465,4.465,0,0,1,8.929,0A4.379,4.379,0,0,1,278.625,144.738Zm0-5.78a1.355,1.355,0,0,0-1.484,1.372,1.466,1.466,0,0,0,2.929,0A1.349,1.349,0,0,0,278.625,138.958Zm3.848-3.133h-7.735v-1.5c0-3.7,2.255-5.72,4.067-7.344,1.339-1.2,2.161-1.984,2.161-2.948,0-1.478-1.633-2.006-3.162-2.006a5.53,5.53,0,0,0-4.858,2.244l-.834,1.168-6.155-4,.943-1.281c2.487-3.376,6.4-5.16,11.315-5.16,6.462,0,10.636,3.253,10.636,8.287,0,3.953-2.257,5.982-4.071,7.611-1.473,1.325-2.307,2.136-2.307,3.427Zm-4.508-3h1.707a9.05,9.05,0,0,1,3.1-4.158c1.651-1.483,3.076-2.764,3.076-5.38,0-4.906-5.845-5.287-7.636-5.287a10.909,10.909,0,0,0-7.84,2.733l1.067.694a8.779,8.779,0,0,1,6.362-2.4c3.686,0,6.162,2.012,6.162,5.006,0,2.353-1.678,3.857-3.159,5.183A8.65,8.65,0,0,0,277.965,132.825Z"/><path class="d" d="M282.466,124.033c0-2.089-1.79-3.506-4.662-3.506a7.033,7.033,0,0,0-6.079,2.872l-3.617-2.349c2.088-2.834,5.445-4.55,10.107-4.55,5.481,0,9.136,2.5,9.136,6.787,0,6.079-6.378,6.638-6.378,11.038h-4.735C276.238,128.807,282.466,127.763,282.466,124.033Zm-6.825,16.3a2.965,2.965,0,1,1,2.984,2.908A2.855,2.855,0,0,1,275.641,140.33Z"/></g></g></svg>