<svg xmlns="http://www.w3.org/2000/svg" xmlns:xlink="http://www.w3.org/1999/xlink" width="70.004" height="70" viewBox="0 0 70.004 70"><defs><style>.a{fill:#d39933;}.b{fill:#f4ba45;}.c{fill:#2d2d2d;}.d{fill:#e8980a;}.e{fill:#fc9090;}.f{fill:#c9ffd5;}.g{fill:url(#a);}.h{fill:url(#b);}</style><linearGradient id="a" x1="0.889" y1="0.038" x2="0.105" y2="1.045" gradientUnits="objectBoundingBox"><stop offset="0" stop-color="#fff" stop-opacity="0"/><stop offset="0.007" stop-color="#fff8f8" stop-opacity="0.035"/><stop offset="0.048" stop-color="#ffdada" stop-opacity="0.216"/><stop offset="0.093" stop-color="#ffbdbd" stop-opacity="0.384"/><stop offset="0.142" stop-color="#ffa4a4" stop-opacity="0.533"/><stop offset="0.195" stop-color="#ff8e8e" stop-opacity="0.659"/><stop offset="0.254" stop-color="#ff7c7c" stop-opacity="0.769"/><stop offset="0.32" stop-color="#ff6d6d" stop-opacity="0.855"/><stop offset="0.397" stop-color="#ff6262" stop-opacity="0.922"/><stop offset="0.493" stop-color="#ff5a5a" stop-opacity="0.965"/><stop offset="0.627" stop-color="#ff5656" stop-opacity="0.992"/><stop offset="1" stop-color="#f55"/></linearGradient><linearGradient id="b" x1="0.5" y1="1" x2="0.5" gradientUnits="objectBoundingBox"><stop offset="0" stop-color="#f55" stop-opacity="0"/><stop offset="0.007" stop-color="#ff5354" stop-opacity="0.02"/><stop offset="0.116" stop-color="#ff3d4e" stop-opacity="0.314"/><stop offset="0.218" stop-color="#ff2b48" stop-opacity="0.557"/><stop offset="0.31" stop-color="#ff1d44" stop-opacity="0.749"/><stop offset="0.391" stop-color="#ff1341" stop-opacity="0.886"/><stop offset="0.457" stop-color="#ff0d3f" stop-opacity="0.969"/><stop offset="0.5" stop-color="#ff0b3f"/><stop offset="0.547" stop-color="#ff0e40" stop-opacity="0.953"/><stop offset="0.632" stop-color="#ff1843" stop-opacity="0.827"/><stop offset="0.746" stop-color="#ff2948" stop-opacity="0.627"/><stop offset="0.881" stop-color="#ff3f4e" stop-opacity="0.353"/><stop offset="1" stop-color="#f55" stop-opacity="0.09"/></linearGradient></defs><path class="a" d="M263,475V465l-27.1-21.975L236,475Z" transform="translate(-235.9 -405)"/><path class="b" d="M281,422v18a27.1,27.1,0,0,1-1.25,8.16l-.27-.1c-4.86-1.22-9.49,2.19-9.68,2.34a2,2,0,0,0,2.39,3.2c.04-.02,3.09-2.24,6-1.73l.04.04a26.983,26.983,0,0,1-42.33,8.11V405h39.07A26.853,26.853,0,0,1,281,422Z" transform="translate(-235.9 -405)"/><circle class="c" cx="4" cy="4" r="4" transform="translate(28.1 19)"/><g transform="translate(-235.9 -405)"><path class="d" d="M257.9,422a1,1,0,0,1-.316-1.948l9-3a1,1,0,1,1,.633,1.9l-9,3A1,1,0,0,1,257.9,422Z"/></g><path class="d" d="M281.642,432.463l4.464,6.7a1.827,1.827,0,0,1-1.52,2.841h-3.74a.846.846,0,0,1-.846-.846V432.96A.9.9,0,0,1,281.642,432.463Z" transform="translate(-235.9 -405)"/><g transform="translate(-235.9 -405)"><path class="d" d="M241.99,440.86a1,1,0,0,1-.85,1.13,4.93,4.93,0,0,1-.75.04,7.989,7.989,0,0,1-4.49-1.35v-2.69a4.6,4.6,0,0,0,.83.82,6.054,6.054,0,0,0,4.13,1.2A1.01,1.01,0,0,1,241.99,440.86Z"/><path class="d" d="M241.11,423.99a9.594,9.594,0,0,0-5.21,2.5v-2.56a12.7,12.7,0,0,1,4.99-1.92,1,1,0,1,1,.22,1.98Z"/></g><path class="e" d="M264,459a.077.077,0,0,0-.03.01,1.2,1.2,0,0,0-.17.04c-.07.02-.17.05-.28.08-.18.05-.41.12-.68.21-.1.03-.21.07-.32.11-.33.12-.72.26-1.13.43-.1.03-.2.08-.3.12a20.943,20.943,0,0,0-3.04,1.6c-.17.11-.33.22-.5.34s-.34.24-.51.37c-.13.1-.27.2-.4.31-.11.09-.22.18-.33.28a11.57,11.57,0,0,0-1.39,1.41,3.4,3.4,0,0,0-.25.31c-.02.03-.04.05-.06.08-.12.15-.22.29-.32.44a8.538,8.538,0,0,0-.46.76c-.1.17-.19.35-.28.54-.01.02-.01.04-.02.06-.1.21-.19.43-.27.65-.01.03-.02.07-.03.1a5.943,5.943,0,0,0-.23.75,19.422,19.422,0,0,0-.4,2.02c-.06.34-.11.67-.14.98a19.451,19.451,0,0,0-.12,2,14.17,14.17,0,0,0,.07,2H244s0-.77.08-2c.01-.17.03-.35.04-.54q.03-.345.06-.72c.03-.24.05-.49.08-.74.1-.88.23-1.84.41-2.85.07-.37.14-.74.23-1.12.06-.31.13-.62.21-.94q.075-.33.18-.66c.05-.22.11-.44.18-.65a.407.407,0,0,1,.05-.18c.09-.32.19-.63.29-.94a19.13,19.13,0,0,1,.94-2.28c.11-.24.23-.47.36-.7.1-.18.19-.35.3-.53a1.092,1.092,0,0,1,.08-.15c.3-.52.62-1.02.96-1.51.16-.23.32-.46.49-.68.49-.67,1.01-1.32,1.55-1.93.17-.2.36-.4.54-.6s.36-.39.54-.58.37-.38.56-.56.37-.37.55-.54a43.4,43.4,0,0,1,6.76-5.26,1.507,1.507,0,0,1,.2-.12c.23-.15.36-.22.36-.22l1.2,3.3c-3.89,1.91-6.71,3.72-6.54,5.4.37,3.65,4.99.73,4.99.73a25.971,25.971,0,0,1,3.28-1.37Z" transform="translate(-235.9 -405)"/><path class="f" d="M291.868,458.461c.72-.275,1.673-.426,2.14.19.422.554.166,1.416.569,1.984.46.647,1.458.519,2.188.211,1.439-.609,2.667-1.634,4.08-2.3,1.807-.853,4.788-.978,5.044,1.663a5.95,5.95,0,0,1-.432,2.414,7.145,7.145,0,0,0-.518,2.4c.026.91.419,1.785.413,2.7a4.19,4.19,0,0,1-1.526,2.993,16.742,16.742,0,0,1-4.078,2.411,22.354,22.354,0,0,1-4.448,1.451c-1.577.353-3.876.984-4.98-.621a4.46,4.46,0,0,1-.6-1.734,6.894,6.894,0,0,0-.473-1.782,2.3,2.3,0,0,0-1.286-1.157,11.537,11.537,0,0,0-1.89-.167,2.693,2.693,0,0,1-1.8-3.054c.246-1.846,1.563-3.08,2.766-4.353A13.1,13.1,0,0,1,291.868,458.461Z" transform="translate(-235.9 -405)"/><path class="f" d="M283.64,449.678s7.051,4.814,7.717,1.6S283.64,449.678,283.64,449.678Z" transform="translate(-235.9 -405)"/><path class="f" d="M283.164,452.251s1.642,3.868,2.772,2.713S283.164,452.251,283.164,452.251Z" transform="translate(-235.9 -405)"/><path class="g" d="M264,459a.077.077,0,0,0-.03.01c-.04.01-.09.02-.17.04s-.17.05-.28.08c-.18.05-.41.12-.68.21-.1.03-.21.07-.32.11a11.988,11.988,0,0,0-1.13.43c-.1.03-.2.08-.3.12a20.943,20.943,0,0,0-3.04,1.6c-.17.11-.33.22-.5.34s-.34.24-.51.37c-.13.1-.27.2-.4.31-.11.09-.22.18-.33.28a11.57,11.57,0,0,0-1.39,1.41,3.767,3.767,0,0,0-.25.31c-.02.03-.04.05-.06.08-.11.14-.22.29-.32.44a8.538,8.538,0,0,0-.46.76c-.1.17-.19.35-.28.54-.01.02-.01.04-.02.06-.1.21-.19.43-.27.65-.01.03-.02.07-.03.1a5.943,5.943,0,0,0-.23.75,19.422,19.422,0,0,0-.4,2.02c-.06.34-.11.67-.14.98a19.451,19.451,0,0,0-.12,2,14.17,14.17,0,0,0,.07,2H244s0-.77.08-2c.01-.17.03-.35.04-.54q.03-.345.06-.72c.03-.24.05-.49.08-.74.1-.88.23-1.84.41-2.85.07-.37.14-.74.23-1.12.06-.31.13-.63.21-.94q.075-.33.18-.66c.05-.22.11-.44.18-.65a.407.407,0,0,1,.05-.18c.09-.32.19-.63.29-.94a19.13,19.13,0,0,1,.94-2.28c.11-.24.23-.47.36-.7.1-.18.19-.35.3-.53a1.092,1.092,0,0,1,.08-.15c.3-.52.62-1.02.96-1.51.16-.23.32-.46.49-.68.49-.67,1.01-1.32,1.55-1.93.17-.2.36-.4.54-.6s.36-.39.54-.58.37-.38.56-.56.37-.37.55-.54a43.4,43.4,0,0,1,6.76-5.26,1.507,1.507,0,0,1,.2-.12c.23-.15.36-.22.36-.22l1.2,3.3c-3.89,1.91-6.71,3.72-6.54,5.4.37,3.65,4.99.73,4.99.73a25.971,25.971,0,0,1,3.28-1.37Z" transform="translate(-235.9 -405)"/><path class="h" d="M261.09,460c-2.88,1.23-7.01,3.69-8.09,8a23.13,23.13,0,0,0-.54,3,19.451,19.451,0,0,0-.12,2h-8.26c.04-.58.1-1.26.18-2a30.436,30.436,0,0,1,2.49-9.62c.23-.47.48-.93.74-1.38Z" transform="translate(-235.9 -405)"/></svg>