<svg xmlns="http://www.w3.org/2000/svg" xmlns:xlink="http://www.w3.org/1999/xlink" width="70" height="70.036" viewBox="0 0 70 70.036"><defs><style>.a{fill:#d39933;}.b{fill:#f4ba45;}.c{fill:#2d2d2d;}.d{fill:#fff;}.e{fill:url(#a);}.f{fill:#e8980a;}</style><linearGradient id="a" x1="0.322" y1="0.711" x2="0.673" y2="-0.137" gradientUnits="objectBoundingBox"><stop offset="0" stop-color="#fff" stop-opacity="0"/><stop offset="1" stop-color="#f55"/></linearGradient></defs><path class="a" d="M343.71,476H322.9V452.54L337,460s-2,6-1,9S343.71,476,343.71,476Z" transform="translate(-322.9 -406)"/><path class="b" d="M373.84,420.41a26.85,26.85,0,0,1-3.05,12.43l-7.13,13.7-1.18,2.27a26.978,26.978,0,0,1-4.7,6.48,7.664,7.664,0,0,0-4.46-4.24A16.214,16.214,0,0,0,349,450a.99.99,0,0,0-.99.98,1.008,1.008,0,0,0,.97,1.02,16.033,16.033,0,0,1,3.7.95,5.867,5.867,0,0,1,3.37,3.37.97.97,0,0,0,.23.38,27,27,0,0,1-30.21,3.61,27.873,27.873,0,0,1-3.17-1.93V407.89q.51-.975,1.08-1.89h45.7A27.067,27.067,0,0,1,373.84,420.41Z" transform="translate(-322.9 -406)"/><g transform="translate(-322.9 -406)"><path class="c" d="M382.569,418.359a1,1,0,0,1-.18-1.983l9.33-1.719a1,1,0,0,1,.362,1.967l-9.33,1.719A1.024,1.024,0,0,1,382.569,418.359Z"/></g><g transform="translate(-322.9 -406)"><path class="c" d="M377.481,413.038a1,1,0,0,1-.532-1.848l8.04-5.037a1,1,0,1,1,1.062,1.695l-8.04,5.037A.991.991,0,0,1,377.481,413.038Z"/></g><g transform="translate(-322.9 -406)"><path class="c" d="M387.981,429.057a.988.988,0,0,1-.328-.056l-8.962-3.113a1,1,0,1,1,.656-1.889l8.962,3.113a1,1,0,0,1-.328,1.945Z"/></g><g transform="translate(-322.9 -406)"><path class="d" d="M357.32,456.95a1.249,1.249,0,0,1-.32.05,1.022,1.022,0,0,1-.72-.3q.78-.675,1.5-1.41a3.29,3.29,0,0,1,.17.39A1.011,1.011,0,0,1,357.32,456.95Z"/></g><path class="e" d="M373.84,420.41a26.85,26.85,0,0,1-3.05,12.43l-7.13,13.7-40.76-21.2V407.89q.51-.975,1.08-1.89h45.7A27.067,27.067,0,0,1,373.84,420.41Z" transform="translate(-322.9 -406)"/><g transform="translate(-322.9 -406)"><path class="b" d="M371.38,470.26l-3.03,3.57-.91,1.08-.74.87-.19.22H346.8l4.64-5.46.64-.76-.02-.02c-.86-.77-1.01-4.27-.48-5.88a1.8,1.8,0,0,1,.08-.21v-.01a1.17,1.17,0,0,1,.23-.4l1.03-1.22.77-.91.67-.78.96-1.13.65-.76.62-.74.02-.02a2.5,2.5,0,0,1,.23-.23,2.428,2.428,0,0,1,3.17-.04l.72.61.18.16.58.49.18.15.58.49.19.16,2.54,2.16.76.64.76.65,2.55,2.16.11.09.65.56.14.11.62.53.24.21.29.24A2.426,2.426,0,0,1,371.38,470.26Z"/><path class="f" d="M371.75,466.08l-.53-.45-.1-.09-.66-.56-.32-.27-.44-.37-2.55-2.16v-.01l-.76-.64-.76-.65-2.55-2.15-.18-.16-.58-.49-.18-.15-.58-.5-.19-.16-.71-.6a3.444,3.444,0,0,0-2.47-.8,3.369,3.369,0,0,0-2.07.91l-.02.01a3.572,3.572,0,0,0-.27.28l-.03.03-.66.78-.67.8h-.01l-1.74,2.05a.01.01,0,0,0-.01.01l-.05.07-.84.98-.01.01-.36.44-.33.38a3.015,3.015,0,0,0-.54,1.18v.02a10.333,10.333,0,0,0,.27,5.87l-.12.14L345.5,476h2.61l4.16-4.9v-.01l.02-.02.55-.64.14-.16.52-.59-.76-.65c-.01-.02-.03-.03-.05-.05l-.01-.02c-.51-.81-.56-4.36-.03-5.05l.81-.96.66-.78.69-.81.56-.66.71-.84.64-.76.63-.74.02-.02a1.428,1.428,0,0,1,1.99-.14l.71.61.19.15.58.5.18.15.58.49.19.16,2.54,2.15.76.65.76.64,2.55,2.16.76.65.76.64.54.46a1.422,1.422,0,0,1,.16,2l-3.54,4.18-.66.78-.66.77-.56.66h2.62l.06-.07,1.1-1.28v-.01l3.17-3.73A3.434,3.434,0,0,0,371.75,466.08Z"/><rect class="b" width="5.333" height="12.121" rx="2.667" transform="translate(365.279 454.594) rotate(40.3)"/><path class="f" d="M367.96,455.56a3.648,3.648,0,0,0-3.29-.75,3.081,3.081,0,0,0-.99.42,3.324,3.324,0,0,0-.89.75l-1.23,1.45-.65.77-.65.76-.9,1.07-.64.76-.32.37a3.189,3.189,0,0,0-.3.42,3.456,3.456,0,0,0-.53,1.43,3.384,3.384,0,0,0,.01,1.1,3.609,3.609,0,0,0,1.25,2.22.657.657,0,0,0,.17.12,3.192,3.192,0,0,0,1.04.56h.01a3.523,3.523,0,0,0,.96.17,1.5,1.5,0,0,0,.3,0,2.763,2.763,0,0,0,.75-.1,3.607,3.607,0,0,0,1.93-1.18l1.86-2.2,1.3-1.52v-.01l.29-.34.94-1.11a2.616,2.616,0,0,0,.34-.48,3.408,3.408,0,0,0,.41-.97A3.663,3.663,0,0,0,367.96,455.56Zm-2.33,5.32-.65.77-.65.76-1.87,2.21-.07.07a.5.5,0,0,1-.08.07,1.647,1.647,0,0,1-2.03.15.907.907,0,0,1-.16-.11,1.659,1.659,0,0,1-.46-1.9,1.5,1.5,0,0,1,.27-.45l.31-.37.64-.76.91-1.06.65-.77.64-.76,1.24-1.46a1.667,1.667,0,1,1,2.54,2.16l-.94,1.11Z"/><rect class="b" width="5.333" height="11.636" rx="2.667" transform="matrix(0.763, 0.647, -0.647, 0.763, 368.405, 459.153)"/><path class="f" d="M371.09,460.11a3.73,3.73,0,0,0-1.96-.84,3.486,3.486,0,0,0-1.07.04,3.666,3.666,0,0,0-2.14,1.23l-.29.34-.65.77-.65.76-1.87,2.21-.07.07-.07.09-.01.01-.47.56a3.815,3.815,0,0,0-.54.85,3.922,3.922,0,0,0-.29.98,2.066,2.066,0,0,0-.03.35,3.675,3.675,0,0,0,3.24,3.83,3.432,3.432,0,0,0,1.06-.04,3.639,3.639,0,0,0,2.15-1.23l2.49-2.94.02-.02.63-.74.65-.76.07-.09.22-.26a3.037,3.037,0,0,0,.44-.66A3.671,3.671,0,0,0,371.09,460.11Zm-7.53,8.88a1.665,1.665,0,0,1-.19-2.35l.62-.74,1.86-2.2,1.3-1.52v-.01l.29-.34a1.671,1.671,0,0,1,2.55,2.16l-.29.35-.65.76-.62.73-.01.01-.02.02-2.49,2.94A1.675,1.675,0,0,1,363.56,468.99Z"/><rect class="b" width="5.333" height="10.667" rx="2.667" transform="translate(370.905 464.451) rotate(40.3)"/><path class="f" d="M373.59,465.41a3.682,3.682,0,0,0-1.64-.79,3.422,3.422,0,0,0-1.15-.04h-.01a3.566,3.566,0,0,0-.65.13,3.309,3.309,0,0,0-.98.48,3.391,3.391,0,0,0-.73.64l-.01.01-.02.02-2.49,2.94-.94,1.11a2.862,2.862,0,0,0-.33.47h-.01a3.348,3.348,0,0,0-.41.98,3.663,3.663,0,0,0,1.17,3.71,3.172,3.172,0,0,0,.37.27,3.1,3.1,0,0,0,.94.44,3.421,3.421,0,0,0,1.18.15,3.6,3.6,0,0,0,2.68-1.28l3.45-4.07A3.673,3.673,0,0,0,373.59,465.41Zm-6.51,8.38a1.577,1.577,0,0,1-.39-.24,1.676,1.676,0,0,1-.2-2.35l.94-1.11,2.49-2.94.02-.02a1.571,1.571,0,0,1,.87-.53,1.644,1.644,0,0,1,1.48.34,1.675,1.675,0,0,1,.2,2.35l-3.45,4.07a1.452,1.452,0,0,1-.69.47A1.6,1.6,0,0,1,367.08,473.79Z"/><rect class="b" width="5.333" height="12.606" rx="2.667" transform="matrix(0.763, 0.647, -0.647, 0.763, 360.713, 451.357)"/><path class="f" d="M364.67,454.81a3.662,3.662,0,0,0-6.44-2.07l-3.37,3.97-.73.87-.61.71a2.184,2.184,0,0,0-.22.31h-.01a3.583,3.583,0,0,0-.63,2.18.019.019,0,0,0,0,.03,3.473,3.473,0,0,0,.26,1.23,3.527,3.527,0,0,0,.54.91,3.029,3.029,0,0,0,.43.45l.06.06a3.683,3.683,0,0,0,1.77.82,3.861,3.861,0,0,0,.96.03,3.912,3.912,0,0,0,.9-.2,4,4,0,0,0,.95-.52,3.825,3.825,0,0,0,.58-.56l.3-.35.64-.76.65-.76.9-1.06.65-.77.65-.76.92-1.08a3.737,3.737,0,0,0,.79-1.61A3.232,3.232,0,0,0,364.67,454.81Zm-8.17,7.5a1.6,1.6,0,0,1-1.26-.38,1.565,1.565,0,0,1-.43-.57,1.646,1.646,0,0,1-.14-.95v-.01a1.71,1.71,0,0,1,.38-.82l.29-.34.65-.76.64-.77.21-.24,1.35-1.6,1.56-1.83a1.664,1.664,0,1,1,2.54,2.15l-.92,1.08-.64.77-.66.77-.9,1.06-.64.76-.65.76-.29.35A1.588,1.588,0,0,1,356.5,462.31Z"/><path class="b" d="M360.582,466.5a3.152,3.152,0,0,0-.365-4.442l-4.438-3.763a3.694,3.694,0,0,0-5.374,3.459l.477,5.8a3.151,3.151,0,0,0,3.4,2.882h0a3.15,3.15,0,0,0,2.887-2.99A3.151,3.151,0,0,0,360.582,466.5Z"/><path class="f" d="M362.31,464.76a4.112,4.112,0,0,0-1.43-3.44l-.02-.02-.16-.14-.58-.49-.18-.15-.58-.49-.19-.16-1.8-1.53-.74-.63-.02-.01-.18-.16a4.048,4.048,0,0,0-.6-.42c-.01-.01-.02-.01-.03-.02a4.058,4.058,0,0,0-.94-.39,4.922,4.922,0,0,0-5.45,5.13l.48,5.8a4.138,4.138,0,0,0,.84,2.19,5.2,5.2,0,0,0,.61.63c.03.03.07.05.1.08a3.74,3.74,0,0,0,.83.52c.01,0,.01.01.02.01a4.182,4.182,0,0,0,5.67-2.46,4.12,4.12,0,0,0,3.02-1.08,3.606,3.606,0,0,0,.33-.35l.03-.03a3.836,3.836,0,0,0,.65-1.07,3.707,3.707,0,0,0,.32-1.29l.01-.01C362.32,464.77,362.32,464.76,362.31,464.76Zm-2.49,1.1a1.984,1.984,0,0,1-.82.59,2.007,2.007,0,0,1-1.11.14h-.01a1.3,1.3,0,0,1-.39-.09l-.65-.22-.61-.2-.06,1.32a2.084,2.084,0,0,1-.05.36,2.143,2.143,0,0,1-3.43,1.22l-.01-.02a1.872,1.872,0,0,1-.65-.88v-.01a1.711,1.711,0,0,1-.15-.59l-.3-3.6-.13-1.64-.05-.56a2.079,2.079,0,0,1,.14-.95l.06-.26a2.168,2.168,0,0,1,.5-1.16,2.2,2.2,0,0,1,1.19-.71h.01a2.088,2.088,0,0,1,1.16.08h.01c.01,0,.02,0,.02.01a2.057,2.057,0,0,1,.64.37l.19.16.02.02.74.62,1.8,1.53.22.19.55.46.22.19.54.45.16.14c.03.03.06.05.09.08a2.178,2.178,0,0,1,.62,2.01,1.98,1.98,0,0,1-.44.91A.076.076,0,0,1,359.82,465.86Z"/><rect class="b" width="4.95" height="14.473" rx="2.475" transform="matrix(-0.997, 0.082, -0.082, -0.997, 357.525, 474.56)"/><path class="f" d="M356.069,467.717a8.964,8.964,0,0,1-2.447-3.162,1,1,0,0,1,1.839-.786,7.718,7.718,0,0,0,2.556,2.922,1,1,0,0,1-1.077,1.686A8.741,8.741,0,0,1,356.069,467.717Z"/></g><g transform="translate(-322.9 -406)"><path class="f" d="M361.89,431.112a1,1,0,0,1-.858-.485l-4.886-8.132a1,1,0,1,1,1.713-1.029l4.887,8.132a1,1,0,0,1-.856,1.514Z"/></g><path class="c" d="M351.347,424.136l7.437,12.207a.25.25,0,0,1-.278.372l-12.539-3.336a.25.25,0,0,1,.053-.491l7.249-.318a.249.249,0,0,0,.226-.327l-2.6-7.9A.25.25,0,0,1,351.347,424.136Z" transform="translate(-322.9 -406)"/><g transform="translate(-322.9 -406)"><path class="f" d="M329.2,433.629a.984.984,0,0,1-.33-.057,8.011,8.011,0,0,1-4.253-3.989c-1.042-2.261-.96-4.987.245-8.1,1.871-4.839,5.339-6.147,7.919-6.392a12.174,12.174,0,0,1,5.086.64,1,1,0,0,1-.72,1.865c-.331-.124-7.565-2.771-10.419,4.608-1,2.58-1.1,4.774-.306,6.52a6.07,6.07,0,0,0,3.115,2.968,1,1,0,0,1-.337,1.941Z"/></g><g transform="translate(-322.9 -406)"><path class="f" d="M329.955,453.038a1,1,0,0,1-.828-.437c-.136-.2-3.308-4.959-1.159-10.107,2.2-5.266,6.31-5.293,6.5-5.3a1,1,0,0,1-.005,2h-.005c-.111,0-2.982.1-4.643,4.073-1.737,4.157.94,8.17.967,8.21a1,1,0,0,1-.826,1.562Z"/></g><g transform="translate(-322.9 -406)"><path class="f" d="M341.637,456.319a3.718,3.718,0,0,1-.507-.029,1,1,0,1,1,.29-1.978c.112.011,2.966.323,5.167-3.382,2.287-3.849.212-8.224.191-8.268a1,1,0,0,1,1.8-.88c.107.218,2.581,5.375-.267,10.169C345.959,455.9,342.848,456.319,341.637,456.319Z"/></g><path class="f" d="M366.532,442.423l.87,8a1.827,1.827,0,0,1-2.659,1.819l-3.319-1.726a.847.847,0,0,1-.36-1.141l3.781-7.269A.9.9,0,0,1,366.532,442.423Z" transform="translate(-322.9 -406)"/></svg>