<svg id="img-kyoor-showsheet" xmlns="http://www.w3.org/2000/svg" width="290.464" height="227.999" viewBox="0 0 290.464 227.999">
  <path id="Path_1376" data-name="Path 1376" d="M3728.631,2380.189c9.653-3.7,22.434-5.718,28.7,2.537,5.662,7.435,2.231,19,7.635,26.607,6.176,8.684,19.559,6.964,29.339,2.838,19.305-8.168,35.774-21.919,54.732-30.864,24.234-11.433,64.212-13.11,67.643,22.309,1.072,11-2.316,21.879-5.79,32.367s-7.249,21.149-6.949,32.2c.343,12.208,5.619,23.943,5.533,36.194-.086,15.474-8.922,29.874-20.46,40.148-15.271,13.583-36.249,23.857-54.69,32.324-19.045,8.727-39.248,14.917-59.661,19.473-21.146,4.729-51.987,13.2-66.785-8.335-4.676-6.835-6.563-15.127-8.064-23.256s-2.745-16.465-6.348-23.9a30.769,30.769,0,0,0-17.243-15.518c-8.064-3.1-16.9-.515-25.35-2.235-17.072-3.439-26.422-23.641-24.107-40.964,3.3-24.759,20.975-41.308,37.1-58.374A175.4,175.4,0,0,1,3728.631,2380.189Z" transform="translate(-3626.414 -2374)" fill="#c9ffd5"/>
  <g id="Group_662" data-name="Group 662" transform="translate(161.424 173.171)">
    <path id="Path_1405" data-name="Path 1405" d="M3936.529,2711.2c-.054,7.672.167,15.35.343,23.02.07,3.052-.332,6.07,2.418,8.132,1.906,1.429,3.859,2.8,5.787,4.2,2.05,1.487,5.222.352,6.41-1.681,1.385-2.366.374-4.92-1.681-6.41l-5.787-4.2,2.321,4.046c-.228-9.031-.5-18.073-.441-27.106.042-6.031-9.328-6.037-9.37,0Z" transform="translate(-3936.52 -2706.672)" fill="#066654"/>
  </g>
  <g id="Group_663" data-name="Group 663" transform="translate(110.395 171.748)">
    <path id="Path_1406" data-name="Path 1406" d="M3853.759,2707.15c-3.068,8.736-3.91,18.29-5.461,27.39l3.272-3.272-9.635,3.843c-2.348.937-4,3.13-3.272,5.764.614,2.232,3.4,4.215,5.764,3.272l7.944-3.169c1.66-.661,3.529-1.184,4.49-2.827a10.189,10.189,0,0,0,.878-3.5c1.42-8.332,2.245-17.007,5.056-25.007,2-5.7-7.046-8.152-9.036-2.491Z" transform="translate(-3838.491 -2703.939)" fill="#066654"/>
  </g>
  <path id="Path_1407" data-name="Path 1407" d="M3923.468,2535.151a67.105,67.105,0,1,1-.369-7.075A67.153,67.153,0,0,1,3923.468,2535.151Z" transform="translate(-3704.447 -2419.069)" fill="#55bfac"/>
  <ellipse id="Ellipse_1147" data-name="Ellipse 1147" cx="5.466" cy="6.507" rx="5.466" ry="6.507" transform="translate(115.345 76.52)" fill="#066654"/>
  <ellipse id="Ellipse_1148" data-name="Ellipse 1148" cx="5.986" cy="6.507" rx="5.986" ry="6.507" transform="translate(145.016 76.52)" fill="#066654"/>
  <g id="Group_664" data-name="Group 664" transform="translate(109.853 97.124)">
    <path id="Path_1408" data-name="Path 1408" d="M3863.72,2573.94c-18.846,0-25.584-9.376-25.862-9.775a2.281,2.281,0,0,1,3.737-2.619c.258.356,5.884,7.831,22.125,7.831,16.284,0,21.9-7.514,22.127-7.833a2.282,2.282,0,0,1,3.735,2.622C3889.3,2564.564,3882.565,2573.94,3863.72,2573.94Z" transform="translate(-3837.45 -2560.581)" fill="#066654"/>
  </g>
  <g id="Group_665" data-name="Group 665" transform="translate(189.448 92.6)">
    <path id="Path_1409" data-name="Path 1409" d="M3998.345,2582.933a49.361,49.361,0,0,0,13.391-25.174c1.144-5.891-7.885-8.414-9.035-2.491a40.557,40.557,0,0,1-10.981,21.04c-4.239,4.3,2.382,10.926,6.626,6.625Z" transform="translate(-3990.357 -2551.89)" fill="#066654"/>
  </g>
  <g id="Group_666" data-name="Group 666" transform="translate(181.975 96.301)">
    <rect id="Rectangle_172" data-name="Rectangle 172" width="41.644" height="53.356" rx="1" transform="translate(0.781 0.781)" fill="#f4f4f4"/>
    <path id="Path_1410" data-name="Path 1410" d="M4017.9,2613.917h-40.6a1.3,1.3,0,0,1-1.3-1.3V2560.3a1.3,1.3,0,0,1,1.3-1.3h40.6a1.3,1.3,0,0,1,1.3,1.3v52.315A1.3,1.3,0,0,1,4017.9,2613.917Zm-40.342-1.562h40.082v-51.794h-40.082Z" transform="translate(-3976 -2559)" fill="#c1c1c1"/>
  </g>
  <g id="Group_667" data-name="Group 667" transform="translate(68.309 101.183)">
    <path id="Path_1411" data-name="Path 1411" d="M3780.705,2600.378a4.674,4.674,0,0,1-4.627,3.992,5.308,5.308,0,0,1-.7-.052c-1.078-.166-10.667-1.775-15.3-8.308a13.389,13.389,0,0,1-2.166-10.484c2.426-12.743,15.278-16.527,17.808-17.147a66.872,66.872,0,0,0-1.3,7.823c-.093.885-.167,1.775-.224,2.666-2.8,1.385-6.236,3.951-7.084,8.407a4.015,4.015,0,0,0,.609,3.316c1.452,2.051,4.851,3.42,7.293,4.081a16.737,16.737,0,0,0,1.749.375A4.691,4.691,0,0,1,3780.705,2600.378Z" transform="translate(-3757.64 -2568.38)" fill="#066654"/>
  </g>
  <rect id="Rectangle_173" data-name="Rectangle 173" width="13.014" height="3.644" rx="1.822" transform="translate(186.66 105.671)" fill="#c1c1c1"/>
  <rect id="Rectangle_174" data-name="Rectangle 174" width="33.835" height="3.644" rx="1.822" transform="translate(186.66 113.999)" fill="#c1c1c1"/>
  <rect id="Rectangle_175" data-name="Rectangle 175" width="33.835" height="3.644" rx="1.822" transform="translate(186.66 122.501)" fill="#c1c1c1"/>
  <rect id="Rectangle_176" data-name="Rectangle 176" width="33.835" height="3.644" rx="1.822" transform="translate(186.66 131.004)" fill="#c1c1c1"/>
  <rect id="Rectangle_177" data-name="Rectangle 177" width="33.835" height="3.644" rx="1.822" transform="translate(186.66 139.506)" fill="#c1c1c1"/>
</svg>
