<svg xmlns="http://www.w3.org/2000/svg" width="826.001" height="640" viewBox="0 0 826.001 640">
  <g id="img-kyoor-airheads" transform="translate(-76.999 -2146)">
    <path id="Path_1388" data-name="Path 1388" d="M2843.385,1642.083a86.29,86.29,0,0,0-32.061-18.4,25.851,25.851,0,0,0-6.755.841,40.788,40.788,0,0,0-70.2,10.306,18.971,18.971,0,0,0-3.377,2.1,27.138,27.138,0,0,0-7.9,8.75,28.431,28.431,0,0,0-5.464,16.813v1.039a28.168,28.168,0,0,0,28,28.333h26.133c.235,0,.467.016.7.016s.468-.011.7-.016h46.836a27.927,27.927,0,0,0,24.313-14.289c.038-.053.079-.1.117-.155a28.22,28.22,0,0,0,5.2-16.406v-1.052A28.764,28.764,0,0,0,2843.385,1642.083Z" transform="translate(-1946.62 651.518)" fill="#fff"/>
    <g id="Group_648" data-name="Group 648" transform="translate(77 2599.129)">
      <path id="Union_1" data-name="Union 1" d="M-11681.5-4568.13h-40a25.5,25.5,0,0,1-25.5-25.5,25.5,25.5,0,0,1,25.5-25.5h3.576a38.518,38.518,0,0,1,36.424-26,38.37,38.37,0,0,1,15.755,3.361,44.015,44.015,0,0,1,40.746-27.362,43.95,43.95,0,0,1,36.092,18.826,43.612,43.612,0,0,1,30.906-12.827c24.136,0,43.731,19.654,44,44h6.5a25.5,25.5,0,0,1,25.5,25.5,25.5,25.5,0,0,1-25.5,25.5Z" transform="translate(11747 4669)" fill="#fff"/>
    </g>
    <g id="Group_632" data-name="Group 632" transform="translate(548.101 2463.819)">
      <path id="Path_1368" data-name="Path 1368" d="M5340.958,2332.491a160.954,160.954,0,1,1-6.594-15.658A161.057,161.057,0,0,1,5340.958,2332.491Z" transform="translate(-5028.388 -2226.076)" fill="#55bfac"/>
      <circle id="Ellipse_1137" data-name="Ellipse 1137" cx="15.605" cy="15.605" r="15.605" transform="translate(70.805 66.07)" fill="#066654"/>
      <circle id="Ellipse_1138" data-name="Ellipse 1138" cx="15.605" cy="15.605" r="15.605" transform="translate(137.74 41.911)" fill="#066654"/>
      <g id="Group_631" data-name="Group 631" transform="translate(72.208 79.705)">
        <path id="Path_1369" data-name="Path 1369" d="M5195.588,2432.525c-19.792,0-30.23-6.787-30.877-7.222a5.618,5.618,0,0,1,6.23-9.351c.185.117,5.189,3.228,14.738,4.639,9.032,1.335,24.075,1.38,44.472-5.983s31.944-17,38.04-23.8c6.538-7.287,8.364-12.931,8.38-12.988a5.618,5.618,0,0,1,10.765,3.223c-.335,1.136-8.707,28.013-53.371,44.133C5218.69,2430.69,5205.875,2432.525,5195.588,2432.525Z" transform="translate(-5162.226 -2373.812)" fill="#066654"/>
      </g>
    </g>
    <g id="Group_634" data-name="Group 634" transform="translate(198 2295.677)">
      <path id="Path_1370" data-name="Path 1370" d="M4395.836,2310.416a101.328,101.328,0,1,1,3.253-10.188A102.437,102.437,0,0,1,4395.836,2310.416Z" transform="translate(-4199.588 -2173.164)" fill="#ffa3af"/>
      <circle id="Ellipse_1139" data-name="Ellipse 1139" cx="9.824" cy="9.824" r="9.824" transform="translate(84.658 37.297)" fill="#724828"/>
      <circle id="Ellipse_1140" data-name="Ellipse 1140" cx="9.824" cy="9.824" r="9.824" transform="translate(126.563 53.134)" fill="#724828"/>
      <g id="Group_633" data-name="Group 633" transform="translate(68.479 61.528)">
        <path id="Path_1371" data-name="Path 1371" d="M4384.72,2324.968a70.412,70.412,0,0,1-24.9-4.993c-27.961-10.568-32.978-27.563-33.178-28.281a3.537,3.537,0,0,1,6.807-1.923c.092.3,4.674,14.444,28.873,23.589,24.334,9.2,37.135,1.482,37.26,1.4a3.537,3.537,0,0,1,3.83,5.947C4403.015,2320.969,4396.654,2324.968,4384.72,2324.968Z" transform="translate(-4326.517 -2287.208)" fill="#724828"/>
      </g>
    </g>
    <g id="Group_636" data-name="Group 636" transform="translate(557.68 2146)">
      <path id="Path_1372" data-name="Path 1372" d="M5160.862,1661.954a64.472,64.472,0,1,1-4.617-5A64.51,64.51,0,0,1,5160.862,1661.954Z" transform="translate(-5046.737 -1638.671)" fill="#ffb396"/>
      <circle id="Ellipse_1141" data-name="Ellipse 1141" cx="6.251" cy="6.251" r="6.251" transform="translate(21.576 51.908)" fill="#724828"/>
      <circle id="Ellipse_1142" data-name="Ellipse 1142" cx="6.251" cy="6.251" r="6.251" transform="translate(43.5 33.692)" fill="#724828"/>
      <g id="Group_635" data-name="Group 635" transform="translate(28.451 42.935)">
        <path id="Path_1373" data-name="Path 1373" d="M5104.375,1754.026a14.2,14.2,0,0,1-3.2-.3,2.251,2.251,0,0,1,1.073-4.371c.19.043,9.458,1.953,22.121-8.569,12.732-10.578,12.481-20.084,12.478-20.179a2.25,2.25,0,0,1,4.493-.252c.029.473.534,11.737-14.094,23.892C5117.109,1752.671,5108.722,1754.026,5104.375,1754.026Z" transform="translate(-5099.473 -1718.251)" fill="#724828"/>
      </g>
    </g>
  </g>
</svg>
