<svg id="img-kyoor-leap" xmlns="http://www.w3.org/2000/svg" width="119.693" height="132.728" viewBox="0 0 119.693 132.728">
  <g id="Group_611" data-name="Group 611" transform="translate(67.809 95.129)">
    <path id="Path_1335" data-name="Path 1335" d="M2183.972,1938.167a21.46,21.46,0,0,0,16.193,13.9c3.638.65,7.369.332,11.064.29a1.727,1.727,0,0,1,1.094.238,1.759,1.759,0,0,1,.48,1.33l.416,6.305" transform="translate(-2179.941 -1934.174)" fill="#fff"/>
    <g id="Group_610" data-name="Group 610" transform="translate(0)">
      <path id="Path_1336" data-name="Path 1336" d="M2182.826,1932.092a17.525,17.525,0,0,0,13.407,11.114,35.183,35.183,0,0,0,6.586.229c1.846-.043,3.807-.322,5.572.3,4.394,1.546,3.579,7.751,3.825,11.483.338,5.127-7.643,5.106-7.98,0-.126-1.916-.016-4.692-.465-6.206l1.027,1.761-.289-.369,1.761,1.026c-1.219-.489-3.736.009-5.159.017a39.549,39.549,0,0,1-6.157-.411,24.118,24.118,0,0,1-8.354-2.939,25.981,25.981,0,0,1-11.467-13.882,4.027,4.027,0,0,1,2.787-4.908,4.071,4.071,0,0,1,4.908,2.787Z" transform="translate(-2174.948 -1929.159)" fill="#066654"/>
    </g>
  </g>
  <g id="Group_613" data-name="Group 613" transform="translate(42.007 97.631)">
    <g id="Group_612" data-name="Group 612" transform="translate(0)">
      <path id="Path_1338" data-name="Path 1338" d="M2271.13,1938.794a26.735,26.735,0,0,0,.327,9.361c.517,2.24,1.127,5.314,3.666,5.963,2.723.7,5.495-.348,7.985,1.353,2.776,1.9,3.009,6.459,3.743,9.461,1.219,4.987-6.474,7.115-7.695,2.121l-.836-3.422-.418-1.711q-.45-1.445-.032-.5l1.76,1.026a11.744,11.744,0,0,0-3.213-.186,17.676,17.676,0,0,1-3.74-.53,11.157,11.157,0,0,1-6.666-5.345c-2.922-5.137-3.577-11.828-2.86-17.6.265-2.138,1.643-3.99,3.99-3.99,1.95,0,4.257,1.837,3.989,3.99Z" transform="translate(-2262.884 -1934.804)" fill="#066654"/>
    </g>
  </g>
  <g id="Group_614" data-name="Group 614" transform="translate(0 18.809)">
    <path id="Path_1339" data-name="Path 1339" d="M2384.633,1779.609a3.991,3.991,0,0,0,3.223-6.337l-10.639-14.629a3.99,3.99,0,0,0-6.453,4.694l10.639,14.629A3.983,3.983,0,0,0,2384.633,1779.609Z" transform="translate(-2370 -1756.999)" fill="#066654"/>
  </g>
  <path id="Path_1340" data-name="Path 1340" d="M2158,1772.64c0,29.623,24.712,53.64,55.192,53.64s55.192-24.018,55.192-53.64a52.607,52.607,0,0,0-.3-5.651c-2.905-26.965-26.372-47.99-54.888-47.99s-51.983,21.024-54.888,47.99A52.544,52.544,0,0,0,2158,1772.64Z" transform="translate(-2154.189 -1719)" fill="#55bfac"/>
  <ellipse id="Ellipse_1130" data-name="Ellipse 1130" cx="5" cy="5.5" rx="5" ry="5.5" transform="translate(48.645 27.46)" fill="#066654"/>
  <ellipse id="Ellipse_1131" data-name="Ellipse 1131" cx="5" cy="5.5" rx="5" ry="5.5" transform="translate(23.645 27.46)" fill="#066654"/>
  <g id="Group_615" data-name="Group 615" transform="translate(19.464 44.636)">
    <path id="Path_1341" data-name="Path 1341" d="M2315.124,1821.773s-3.1,24.382-19.062,24.382S2277,1820,2277,1820Z" transform="translate(-2274.742 -1817.898)" fill="#fff4b0"/>
    <path id="Path_1342" data-name="Path 1342" d="M2293.241,1845.51c17.515,0,20.905-25.058,21.041-26.125l.272-2.144-42.634-1.983.277,2.337C2272.333,1818.735,2275.711,1845.51,2293.241,1845.51Zm16.7-24.489c-1.161,5.645-5.3,20.5-16.7,20.5-11.371,0-15.521-15.942-16.693-22.053Zm2.359-1.888h0Z" transform="translate(-2271.921 -1815.258)" fill="#066654"/>
  </g>
  <g id="Group_616" data-name="Group 616" transform="translate(93.094 22.356)">
    <path id="Path_1343" data-name="Path 1343" d="M2145.993,1787.165a3.972,3.972,0,0,0,2.415-.816l18.619-14.186a3.99,3.99,0,0,0-4.836-6.348L2143.572,1780a3.99,3.99,0,0,0,2.421,7.163Z" transform="translate(-2142 -1765)" fill="#066654"/>
  </g>
</svg>
