<svg xmlns="http://www.w3.org/2000/svg" width="1036" height="502" viewBox="0 0 1036 502">
  <g id="img-hero" transform="translate(-4839.25 -4190)">
    <g id="Group_632" data-name="Group 632">
      <path id="Path_1424" data-name="Path 1424" d="M5875.25,4440.708V4692H5258.327c-4.828-149.369,86.1-291.366,234.583-344.846C5631.691,4297.165,5781.266,4338.726,5875.25,4440.708Z" fill="#55bfac"/>
      <ellipse id="Ellipse_1137" data-name="Ellipse 1137" cx="34.429" cy="34.356" rx="34.429" ry="34.356" transform="translate(5414.356 4471.459)" fill="#066654"/>
      <ellipse id="Ellipse_1138" data-name="Ellipse 1138" cx="34.429" cy="34.356" rx="34.429" ry="34.356" transform="translate(5562.03 4418.272)" fill="#066654"/>
      <g id="Group_631" data-name="Group 631">
        <path id="Path_1369" data-name="Path 1369" d="M5491.053,4630.742c-43.665,0-66.7-14.942-68.122-15.9a12.376,12.376,0,1,1,13.745-20.585c.409.257,11.448,7.106,32.518,10.213,19.925,2.938,53.115,3.037,98.114-13.174s70.478-37.436,83.925-52.393c14.426-16.042,18.453-28.47,18.491-28.594a12.393,12.393,0,0,1,23.75,7.094h0c-.74,2.5-19.209,61.672-117.748,97.162C5542.023,4626.7,5513.749,4630.742,5491.053,4630.742Z" fill="#066654"/>
      </g>
    </g>
    <g id="Group_679" data-name="Group 679">
      <path id="Path_1344" data-name="Path 1344" d="M5122.762,4332.7c-5.777-3.052-61.336-32.932-65.69-55.317a28.815,28.815,0,0,1,22.631-33.839,28.418,28.418,0,0,1,26.817,9.123l.826.925.42-1.167a28.4,28.4,0,0,1,21.436-18.5,28.829,28.829,0,0,1,33.666,22.9C5168.38,4285.169,5127.189,4328.178,5122.762,4332.7Z" fill="#ffa3af"/>
      <g id="Line_398" data-name="Line 398">
        <path id="Path_1425" data-name="Path 1425" d="M5115.758,4219.634c-.082,0-.163,0-.245-.008a3.978,3.978,0,0,1-3.733-4.212l1.315-21.675a3.981,3.981,0,0,1,7.947.482l-1.315,21.675A3.979,3.979,0,0,1,5115.758,4219.634Z" fill="#55bfac"/>
      </g>
      <g id="Line_399" data-name="Line 399">
        <path id="Path_1426" data-name="Path 1426" d="M5106.166,4376c-.065,0-.131,0-.2,0a3.979,3.979,0,0,1-3.781-4.169l.551-11.218a3.981,3.981,0,0,1,7.953.39l-.551,11.219A3.98,3.98,0,0,1,5106.166,4376Z" fill="#55bfac"/>
      </g>
      <g id="Line_400" data-name="Line 400">
        <path id="Path_1427" data-name="Path 1427" d="M5059.2,4229.789a3.969,3.969,0,0,1-2.951-1.307l-9.963-10.984a3.981,3.981,0,0,1,5.9-5.345l9.963,10.985a3.98,3.98,0,0,1-2.949,6.651Z" fill="#55bfac"/>
      </g>
      <g id="Line_401" data-name="Line 401">
        <path id="Path_1428" data-name="Path 1428" d="M5027.075,4283.132c-.066,0-.132,0-.2,0l-24.695-1.211a3.979,3.979,0,1,1,.391-7.948l24.7,1.212a3.978,3.978,0,0,1-.192,7.952Z" fill="#55bfac"/>
      </g>
      <g id="Line_402" data-name="Line 402">
        <path id="Path_1429" data-name="Path 1429" d="M5169.141,4228.357a3.979,3.979,0,0,1-2.674-6.927l12.442-11.271a3.98,3.98,0,1,1,5.348,5.9l-12.443,11.271A3.966,3.966,0,0,1,5169.141,4228.357Z" fill="#55bfac"/>
      </g>
      <g id="Line_403" data-name="Line 403">
        <path id="Path_1430" data-name="Path 1430" d="M5208.109,4301.934a4.045,4.045,0,0,1-.545-.037l-31.178-4.268a3.979,3.979,0,1,1,1.081-7.884l31.178,4.269a3.978,3.978,0,0,1-.536,7.92Z" fill="#55bfac"/>
      </g>
      <g id="Line_404" data-name="Line 404">
        <path id="Path_1431" data-name="Path 1431" d="M5180.7,4345.042a3.969,3.969,0,0,1-2.689-1.046l-12.384-11.337a3.98,3.98,0,1,1,5.379-5.867l12.384,11.337a3.979,3.979,0,0,1-2.69,6.913Z" fill="#55bfac"/>
      </g>
      <g id="Line_405" data-name="Line 405">
        <path id="Path_1432" data-name="Path 1432" d="M5041.657,4351.313a3.979,3.979,0,0,1-2.675-6.927l16.1-14.579a3.98,3.98,0,1,1,5.347,5.9l-16.094,14.579A3.968,3.968,0,0,1,5041.657,4351.313Z" fill="#55bfac"/>
      </g>
    </g>
    <path id="Path_1347" data-name="Path 1347" d="M5607.34,4243.251a87.357,87.357,0,0,0-32.4-18.4,26.383,26.383,0,0,0-6.826.841A41.427,41.427,0,0,0,5497.179,4236a19.2,19.2,0,0,0-3.412,2.1,27.236,27.236,0,0,0-7.989,8.75,28.244,28.244,0,0,0-5.521,16.813v1.039a28.313,28.313,0,0,0,28.292,28.333h26.41c.238,0,.471.016.71.016s.474-.011.71-.016h47.327a28.269,28.269,0,0,0,24.564-14.289c.038-.053.08-.1.118-.155a28.021,28.021,0,0,0,5.25-16.406v-1.052A28.578,28.578,0,0,0,5607.34,4243.251Z" fill="#fff"/>
    <path id="Path_1433" data-name="Path 1433" d="M5078.4,4520.5h-6.5c-.265-24.345-19.823-44-43.923-44a43.514,43.514,0,0,0-30.868,12.84,43.9,43.9,0,0,0-76.717,8.535,38.414,38.414,0,0,0-52.1,22.625h-3.581a25.5,25.5,0,0,0,0,51H5078.4a25.5,25.5,0,0,0,0-51Z" fill="#fff"/>
  </g>
</svg>
