<svg id="img-kyoor-sleeping" xmlns="http://www.w3.org/2000/svg" width="290.467" height="228" viewBox="0 0 290.467 228">
  <g id="Group_677" data-name="Group 677" transform="translate(0)">
    <path id="Path_1412" data-name="Path 1412" d="M5421.884,2435.986c-3.472,10.484-7.245,21.144-6.949,32.2.344,12.207,5.622,23.94,5.539,36.194-.089,15.47-8.928,29.874-20.464,40.145-10.748,9.562-24.319,17.479-37.843,24.278-5.694,2.868-11.379,5.539-16.845,8.047q-7.1,3.249-14.389,6.044c-.328.125-.649.25-.979.37a301.735,301.735,0,0,1-30.253,9.641q-7,1.85-14.045,3.42c-5.257,1.177-11.119,2.582-17.188,3.7-10.483,1.937-21.576,3.014-31.231.542a30.652,30.652,0,0,1-18.36-12.576,36.271,36.271,0,0,1-2.723-4.727c-2.77-5.768-4.175-12.2-5.347-18.531-.78-4.232-1.488-8.516-2.5-12.7a61.73,61.73,0,0,0-2.3-7.611c-.464-1.213-.974-2.41-1.541-3.587a30.783,30.783,0,0,0-17.246-15.522c-8.062-3.092-16.9-.51-25.35-2.233-17.069-3.441-26.419-23.643-24.107-40.962,3.306-24.762,20.978-41.31,37.105-58.374a175.409,175.409,0,0,1,64.766-43.549c9.65-3.7,22.436-5.715,28.7,2.535,5.658,7.439,2.229,19,7.632,26.61,6.179,8.683,19.562,6.965,29.343,2.837,19.3-8.167,35.772-21.92,54.73-30.863,24.23-11.436,64.209-13.113,67.644,22.306C5428.75,2414.622,5425.361,2425.5,5421.884,2435.986Z" transform="translate(-5137.412 -2373.998)" fill="#c9ffd5"/>
    <path id="Path_1413" data-name="Path 1413" d="M5424.471,2540.15a67.153,67.153,0,1,1-123.676-36.251c.6-.947,1.233-1.874,1.889-2.785.791-1.114,1.624-2.2,2.489-3.264,1.108-1.374,2.28-2.7,3.493-3.977a67.138,67.138,0,0,1,97.222-.089q1.835,1.913,3.5,3.967,1.3,1.593,2.494,3.264c.775,1.062,1.509,2.155,2.206,3.264a67.027,67.027,0,0,1,10.381,35.871Z" transform="translate(-5210.652 -2421.465)" fill="#55bfac"/>
    <g id="Group_669" data-name="Group 669" transform="translate(117.601 100.707)">
      <path id="Path_1414" data-name="Path 1414" d="M5390.965,2580.945c-19.8,0-26.887-9.355-27.179-9.754a2.343,2.343,0,0,1,3.767-2.786c.118.152,6.266,7.854,23.412,7.854,17.45,0,23.344-7.76,23.4-7.839a2.342,2.342,0,0,1,3.778,2.77C5417.851,2571.59,5410.763,2580.945,5390.965,2580.945Z" transform="translate(-5363.332 -2567.463)" fill="#066654"/>
    </g>
    <g id="Group_670" data-name="Group 670" transform="translate(121.072 77.562)">
      <path id="Path_1415" data-name="Path 1415" d="M5378.679,2534.452c-6.191,0-8.582-5.411-8.678-9.048a2.342,2.342,0,1,1,4.683-.124c.03.736.363,4.486,4,4.486s3.964-3.75,4-4.5a2.342,2.342,0,0,1,4.682.139C5387.26,2529.041,5384.869,2534.452,5378.679,2534.452Z" transform="translate(-5370 -2523)" fill="#066654"/>
    </g>
    <g id="Group_671" data-name="Group 671" transform="translate(150.743 77.562)">
      <path id="Path_1416" data-name="Path 1416" d="M5435.68,2534.452c-6.192,0-8.582-5.411-8.679-9.048a2.342,2.342,0,1,1,4.682-.124c.031.736.364,4.486,4,4.486s3.964-3.75,3.994-4.5a2.342,2.342,0,0,1,4.683.139C5444.26,2529.041,5441.869,2534.452,5435.68,2534.452Z" transform="translate(-5427 -2523)" fill="#066654"/>
    </g>
    <g id="Group_672" data-name="Group 672" transform="translate(182.844 74.439)">
      <path id="Path_1417" data-name="Path 1417" d="M5496.962,2526.231a2.039,2.039,0,0,1,.924.154.8.8,0,0,1,.395.451,2.179,2.179,0,0,1,.108.757,2.815,2.815,0,0,1-.08.736,1.352,1.352,0,0,1-.2.425.611.611,0,0,1-.343.214,2.6,2.6,0,0,1-.839.1h-6.816a1.425,1.425,0,0,1-.725-.194,1.386,1.386,0,0,1-.72-1.3,1.113,1.113,0,0,1,.194-.687l5.087-7.036h-3.774a5.651,5.651,0,0,1-.583-.023,1.8,1.8,0,0,1-.451-.14c-.313-.154-.473-.562-.473-1.23,0-.7.147-1.125.44-1.279a1.317,1.317,0,0,1,.433-.157,5.609,5.609,0,0,1,.582-.023h6.594a1.419,1.419,0,0,1,.719.2,1.373,1.373,0,0,1,.537.525,1.508,1.508,0,0,1,.188.768,1.146,1.146,0,0,1-.2.706l-5.081,7.036Z" transform="translate(-5488.667 -2517)" fill="#066654"/>
    </g>
    <g id="Group_673" data-name="Group 673" transform="translate(208.25 57.261)">
      <path id="Path_1418" data-name="Path 1418" d="M5551.035,2496.743a3.833,3.833,0,0,1,1.516.217,1.2,1.2,0,0,1,.641.621,2.59,2.59,0,0,1,.173,1.04,3.357,3.357,0,0,1-.129,1.019,1.65,1.65,0,0,1-.323.589,1.123,1.123,0,0,1-.566.3,5.008,5.008,0,0,1-1.364.134h-11.148a2.683,2.683,0,0,1-1.184-.271,1.874,1.874,0,0,1-1.176-1.789,1.36,1.36,0,0,1,.325-.951l8.306-9.706h-6.167a9.423,9.423,0,0,1-.949-.036,3.105,3.105,0,0,1-.739-.194c-.52-.21-.776-.777-.776-1.7q0-1.445.723-1.766a2.476,2.476,0,0,1,.709-.214c.2-.022.52-.035.95-.035h10.779a2.669,2.669,0,0,1,1.175.274,2.155,2.155,0,0,1,.875.723,1.857,1.857,0,0,1,.31,1.062,1.427,1.427,0,0,1-.325.974l-8.306,9.71Z" transform="translate(-5537.474 -2484)" fill="#066654"/>
    </g>
    <g id="Group_674" data-name="Group 674" transform="translate(175.803 24.467)">
      <path id="Path_1419" data-name="Path 1419" d="M5493.786,2441.706a4.65,4.65,0,0,1,2.086.351,1.845,1.845,0,0,1,.878,1.009,5.059,5.059,0,0,1,.24,1.7,6.181,6.181,0,0,1-.184,1.655,2.923,2.923,0,0,1-.439.953,1.444,1.444,0,0,1-.776.479,5.814,5.814,0,0,1-1.878.219h-15.328a3.218,3.218,0,0,1-1.622-.439,3.109,3.109,0,0,1-1.624-2.908,2.509,2.509,0,0,1,.448-1.544l11.42-15.776h-8.48a11.22,11.22,0,0,1-1.3-.056,3.8,3.8,0,0,1-1.014-.315c-.712-.343-1.072-1.26-1.072-2.756,0-1.567.336-2.525,1-2.868a2.882,2.882,0,0,1,.976-.352,11.346,11.346,0,0,1,1.311-.056h14.808a3.334,3.334,0,0,1,2.821,1.62,3.424,3.424,0,0,1,.423,1.727,2.58,2.58,0,0,1-.447,1.584l-11.42,15.776Z" transform="translate(-5475.141 -2421)" fill="#066654"/>
    </g>
    <g id="Group_676" data-name="Group 676" transform="translate(68.582 120.768)">
      <path id="Path_1420" data-name="Path 1420" d="M5425.344,2656.5v47.744c-5.7,2.868-11.379,5.539-16.845,8.048q-7.1,3.248-14.388,6.043v.37h-.979a301.965,301.965,0,0,1-30.253,9.64q-7,1.85-14.045,3.42c-5.258,1.176-11.119,2.582-17.188,3.7-10.484,1.937-21.577,3.014-31.233.542a30.649,30.649,0,0,1-18.358-12.576,36.022,36.022,0,0,1-2.723-4.726c-2.77-5.768-4.175-12.2-5.346-18.531-.781-4.232-1.49-8.516-2.5-12.7a61.771,61.771,0,0,0-2.3-7.61V2656.5Z" transform="translate(-5269.171 -2630.213)" fill="#55bfac"/>
      <path id="Rectangle_178" data-name="Rectangle 178" d="M10.071,0H146.1a10.071,10.071,0,0,1,10.071,10.071V26.027a0,0,0,0,1,0,0H0a0,0,0,0,1,0,0V10.071A10.071,10.071,0,0,1,10.071,0Z" fill="#fff4b0"/>
      <g id="Group_675" data-name="Group 675" transform="translate(0.009 26.027)">
        <path id="Path_1421" data-name="Path 1421" d="M5300.413,2656v31.233h-28.931a61.765,61.765,0,0,0-2.3-7.611V2656Z" transform="translate(-5269.18 -2656)" fill="#066654"/>
        <rect id="Rectangle_179" data-name="Rectangle 179" width="31.233" height="31.233" transform="translate(62.464)" fill="#066654"/>
        <rect id="Rectangle_180" data-name="Rectangle 180" width="31.233" height="31.233" transform="translate(31.231 31.233)" fill="#066654"/>
        <rect id="Rectangle_181" data-name="Rectangle 181" width="31.233" height="31.233" transform="translate(124.929)" fill="#066654"/>
        <path id="Path_1422" data-name="Path 1422" d="M5309.763,2776v17.3a30.651,30.651,0,0,1-18.36-12.576,36.1,36.1,0,0,1-2.723-4.727Z" transform="translate(-5278.529 -2713.535)" fill="#066654"/>
        <path id="Path_1423" data-name="Path 1423" d="M5420.413,2776v9.64q-7,1.851-14.045,3.42c-5.257,1.176-11.118,2.582-17.187,3.7V2776Z" transform="translate(-5326.715 -2713.535)" fill="#066654"/>
        <rect id="Rectangle_182" data-name="Rectangle 182" width="31.233" height="31.233" transform="translate(93.698 31.233)" fill="#066654"/>
      </g>
    </g>
  </g>
</svg>
