<svg xmlns="http://www.w3.org/2000/svg" width="66" height="66.001" viewBox="0 0 66 66.001">
  <g id="img-kyoor" transform="translate(-3880.814 -303.578)">
    <path id="Path_1377" data-name="Path 1377" d="M3946.814,336.579a32.976,32.976,0,1,1-.181-3.476A33,33,0,0,1,3946.814,336.579Z" fill="#55bfac"/>
    <circle id="Ellipse_1143" data-name="Ellipse 1143" cx="3.198" cy="3.198" r="3.198" transform="translate(3902.26 317.648)" fill="#066654"/>
    <circle id="Ellipse_1144" data-name="Ellipse 1144" cx="3.198" cy="3.198" r="3.198" transform="translate(3916.841 317.648)" fill="#066654"/>
    <g id="Group_638" data-name="Group 638" transform="translate(3899.531 327.743)">
      <path id="Path_1378" data-name="Path 1378" d="M3931.165,357.68c-9.729,0-13.213-4.6-13.357-4.794a1.151,1.151,0,0,1,1.851-1.369c.059.076,3.082,3.86,11.506,3.86,8.468,0,11.478-3.822,11.507-3.861a1.151,1.151,0,0,1,1.851,1.37C3944.379,353.082,3940.9,357.68,3931.165,357.68Z" transform="translate(-3917.585 -351.054)" fill="#066654"/>
    </g>
  </g>
</svg>
