<svg xmlns="http://www.w3.org/2000/svg" width="227.979" height="160" viewBox="0 0 227.979 160"><defs><style>.a{fill:#c9ffd5;}.b{fill:#85cbf8;}.c{fill:#066654;}.d{fill:#55bfac;}.e,.g{fill:#fff;}.f{fill:#c4c4c4;}.g{stroke:#55bfac;stroke-miterlimit:10;stroke-width:3px;}.h{fill:#f03a17;font-size:25px;font-family:SegoeUIEmoji, Segoe UI Emoji;}</style></defs><g transform="translate(-4336.915 -2374)"><g transform="translate(4336.915 2374)"><path class="a" d="M4408.646,2378.343c6.774-2.594,15.743-4.012,20.137,1.78,3.974,5.218,1.565,13.332,5.358,18.672,4.334,6.094,13.726,4.887,20.589,1.991,13.547-5.732,25.1-15.382,38.409-21.659,17.006-8.023,45.062-9.2,47.469,15.656.752,7.723-1.626,15.354-4.064,22.714s-5.086,14.842-4.875,22.594c.24,8.567,3.943,16.8,3.883,25.4-.061,10.859-6.262,20.964-14.358,28.174-10.716,9.533-25.437,16.742-38.379,22.684a210.479,210.479,0,0,1-41.867,13.665c-14.84,3.318-36.483,9.261-46.868-5.849-3.281-4.8-4.605-10.616-5.658-16.321s-1.927-11.554-4.456-16.772a21.592,21.592,0,0,0-12.1-10.89c-5.659-2.172-11.86-.361-17.79-1.569-11.979-2.413-18.542-16.59-16.917-28.747,2.318-17.375,14.72-28.988,26.037-40.964A123.078,123.078,0,0,1,4408.646,2378.343Z" transform="translate(-4336.914 -2374)"/><path class="b" d="M4478.923,2485.434,4476,2460.959,4528.968,2450l37.991,13.881,12.055-.365-1.1,24.84-23.744,5.479h-50.411Z" transform="translate(-4425.192 -2422.238)"/><g transform="translate(107.171 118.82)"><path class="c" d="M4646.994,2730.586a3.263,3.263,0,0,1-.5-.038l-12.054-1.826a3.287,3.287,0,0,1-2.789-3.056l-1.354-22.915a3.288,3.288,0,0,1,6.564-.388l1.2,20.258,9.423,1.428a3.288,3.288,0,0,1-.489,6.538Z" transform="translate(-4630.293 -2699.269)"/></g><g transform="translate(77.216 118.82)"><path class="c" d="M4551.577,2730.587a3.288,3.288,0,0,1-.489-6.538l9.422-1.428,1.2-20.257a3.287,3.287,0,1,1,6.563.388l-1.354,22.915a3.286,3.286,0,0,1-2.789,3.056l-12.055,1.826A3.241,3.241,0,0,1,4551.577,2730.587Z" transform="translate(-4548.293 -2699.271)"/></g><g transform="translate(36.56 71.84)"><path class="c" d="M4440.283,2595.992a3.288,3.288,0,0,1-2.957-4.72c5.822-12.034,17.966-19.779,18.48-20.1a3.287,3.287,0,0,1,3.508,5.561h0c-.11.07-11.083,7.1-16.069,17.406A3.289,3.289,0,0,1,4440.283,2595.992Z" transform="translate(-4436.997 -2570.662)"/></g><g transform="translate(145.786 74.033)"><path class="c" d="M4756.566,2601.993a3.287,3.287,0,0,1-2.961-1.856c-4.987-10.306-15.959-17.335-16.07-17.405a3.288,3.288,0,0,1,3.508-5.561c.514.324,12.658,8.069,18.48,20.1a3.289,3.289,0,0,1-2.957,4.72Z" transform="translate(-4736.004 -2576.664)"/></g><path class="d" d="M4584.417,2503.123a47.125,47.125,0,1,1-86.791-25.439c.343-.544.7-1.078,1.074-1.6l.251-.351c.34-.478.694-.953,1.056-1.417.227-.3.457-.584.69-.873.778-.965,1.6-1.9,2.451-2.791a47.115,47.115,0,0,1,68.227-.062q1.287,1.343,2.458,2.784.63.767,1.22,1.56l0,0q.264.361.526.726c.015.019.026.037.04.055.53.727,1.03,1.476,1.509,2.236a46.843,46.843,0,0,1,7.024,20.208A47.39,47.39,0,0,1,4584.417,2503.123Z" transform="translate(-4434.186 -2426.046)"/><circle class="c" cx="4.566" cy="4.566" r="4.566" transform="translate(86.607 50.046)"/><circle class="c" cx="4.566" cy="4.566" r="4.566" transform="translate(107.428 50.046)"/><path class="b" d="M4490.247,2452.146,4476,2442.03l16.073-13.488,35.434-8.542,39.452,6.941,12.055,17.6-9.1,5.779-4.653,1.04-22.778-5.769h-28.127Z" transform="translate(-4425.192 -2403.196)"/><path class="e" d="M4589.713,2507.386c-.014-.018-.025-.036-.04-.054-.175-.245-.351-.486-.526-.727l0,0-.87-.7-16.362,14.358c-2.615-.631-8.552-1.638-19.8-1.638-12.893,0-18.806,1.323-20.737,1.885l-16.549-14.522c-.361.464-.716.939-1.055,1.417l-.252.35,17.1,28.619v1.028l5.729,4.427c7.422,5.736,24.223,5.72,31.6-.028l5.649-4.4v-1.224Zm-71.452,4.322,12.36,10.849v9.835ZM4573.6,2532v-10.51l11.557-10.14Z" transform="translate(-4449.006 -2457.717)"/><path class="f" d="M4565.4,2587s5.224,4.384,18.484,4.384,21.3-4.384,21.3-4.384-6.429,5.114-21.3,5.114S4565,2587,4565,2587" transform="translate(-4481.681 -2509.192)"/><path class="f" d="M4565.4,2575s5.224,4.384,18.484,4.384,21.3-4.384,21.3-4.384-6.429,5.114-21.3,5.114S4565,2575,4565,2575" transform="translate(-4481.681 -2501.575)"/><path class="f" d="M4565.4,2562s5.224,3.288,18.484,3.288,21.3-3.288,21.3-3.288-6.429,4.018-21.3,4.018S4565,2562,4565,2562" transform="translate(-4481.681 -2493.324)"/><path class="f" d="M4565.4,2552s5.224,1.826,18.484,1.826,21.3-1.826,21.3-1.826-6.429,2.557-21.3,2.557S4565,2552,4565,2552" transform="translate(-4481.681 -2486.977)"/><g transform="translate(63.439 41.021)"><path class="a" d="M4590.086,2497.179c-.025.11-.054.223-.084.333a159.339,159.339,0,0,0-79.269,0c-.052-.2-.1-.4-.153-.6.42-.665.866-1.315,1.325-1.954.556-.782,1.14-1.545,1.747-2.29.778-.965,1.6-1.9,2.451-2.791a165.651,165.651,0,0,1,68.227-.062q1.288,1.343,2.459,2.783.914,1.118,1.749,2.291C4589.082,2495.634,4589.6,2496.4,4590.086,2497.179Z" transform="translate(-4510.58 -2486.295)"/><path class="c" d="M4590.842,2498.7a161.5,161.5,0,0,0-76.632.069c.555-.782,1.14-1.545,1.746-2.291a163.322,163.322,0,0,1,73.136-.069Q4590.007,2497.523,4590.842,2498.7Z" transform="translate(-4512.884 -2490.102)"/></g></g><path class="g" d="M4844.951,2395.734h-50.587a5.637,5.637,0,0,0-5.621,5.621v33.725a5.637,5.637,0,0,0,5.621,5.621h7.025c.844,4.637,0,8.713-4.215,11.242,5.761,0,12.366-2.81,15.457-11.242h32.32a5.638,5.638,0,0,0,5.621-5.621v-33.725A5.638,5.638,0,0,0,4844.951,2395.734Z" transform="translate(-287.179 -13.795)"/><text class="h" transform="translate(4532.706 2412.933)"><tspan x="-17.163" y="0">🛑</tspan></text></g></svg>